<?xml version="1.0" encoding="UTF-8" standalone="no"?>
<svg
   xmlns:dc="http://purl.org/dc/elements/1.1/"
   xmlns:cc="http://creativecommons.org/ns#"
   xmlns:rdf="http://www.w3.org/1999/02/22-rdf-syntax-ns#"
   xmlns:svg="http://www.w3.org/2000/svg"
   xmlns="http://www.w3.org/2000/svg"
   viewBox="0 0 2210.6667 689.33331"
   height="689.33331"
   width="2210.6667"
   xml:space="preserve"
   id="svg2"
   version="1.1"><metadata
     id="metadata8"><rdf:RDF><cc:Work
         rdf:about=""><dc:format>image/svg+xml</dc:format><dc:type
           rdf:resource="http://purl.org/dc/dcmitype/StillImage" /></cc:Work></rdf:RDF></metadata><defs
     id="defs6" /><g
     transform="matrix(1.3333333,0,0,-1.3333333,0,689.33333)"
     id="g10"><path
       id="path12"
       style="fill:#242424;fill-opacity:0.55690002;fill-rule:nonzero;stroke:#242424;stroke-width:0.09375;stroke-linecap:butt;stroke-linejoin:miter;stroke-miterlimit:10;stroke-dasharray:none;stroke-opacity:0.55690002"
       d="M 0,517 H 1 C 1,344.7 1,172.3 1,0 H 0 Z" /><path
       id="path14"
       style="fill:#404040;fill-opacity:1;fill-rule:nonzero;stroke:#404040;stroke-width:0.09375;stroke-linecap:butt;stroke-linejoin:miter;stroke-miterlimit:10;stroke-dasharray:none;stroke-opacity:1"
       d="M 1,517 H 1658 V 0 H 1 c 0,172.3 0,344.7 0,517 m 67.1,-78 c -9.6,-10.6 -13,-25.6 -11.6,-39.6 1.2,-10.5 7,-20.1 14.9,-27.1 11.3,-10 25.8,-15.7 40.1,-20 9.3,-2.6 18.7,-5.7 26.8,-11 4.4,-2.8 8.5,-6.6 10.2,-11.7 2,-5.7 0.1,-12 -3.4,-16.6 -11.2,-14.3 -32.4,-15.9 -48.1,-9.1 -6.9,2.8 -12.4,8.2 -15.8,14.6 -8.5,-3.2 -17.1,-6.1 -25.5,-9.5 2.6,-7.4 7.2,-14 13,-19.3 11.6,-10.3 26.9,-16.2 42.3,-17.1 13.7,-0.9 27.8,1.6 39.5,8.9 11.6,6.9 21.4,17.8 24.8,31.1 3.2,11.4 1.8,24.1 -4.6,34.1 -7.7,12.7 -20.9,21 -34.4,26.5 -12.7,5.3 -26.7,7.4 -38.7,14.3 -5.8,3.3 -11.7,7.9 -13.4,14.7 -1.6,8.6 2.2,18.2 9.9,22.7 9.1,5.5 20.3,6.1 30.6,4.9 8.4,-1 16.4,-4.8 22.4,-10.8 6.8,6.1 13.5,12.3 20.1,18.8 -3.9,4 -8.1,7.6 -12.9,10.5 -13.2,8.1 -29.2,10.5 -44.4,9.5 -15.5,-1 -31.3,-7.1 -41.8,-18.8 m 114,13.7 C 181.9,392.2 182,331.6 182,271 c 9.2,0 18.4,-0.1 27.6,0.1 0,25.7 -0.1,51.4 0,77.1 24.7,0 49.3,0.3 74,-0.1 0,-25.7 -0.1,-51.4 0,-77.1 9.2,0 18.3,0 27.5,0 0.1,60.7 0.1,121.3 0,182 -9.2,0 -18.3,0 -27.5,0 -0.1,-25.6 0,-51.3 0,-76.9 -24.7,-0.3 -49.3,-0.1 -74,-0.1 -0.1,25.5 0,51.1 0,76.7 -9.2,0.1 -18.4,0 -27.5,0 m 138.2,0.2 c 0,-60.6 0,-121.2 0,-181.8 9.2,-0.2 18.4,-0.1 27.7,-0.1 0.1,14.2 -0.2,28.4 0.1,42.6 20.5,-0.1 41,-0.1 61.6,-0.1 8.9,-13.7 17.5,-27.7 26.3,-41.5 0.8,-1.4 2.7,-0.8 3.9,-1 18.7,0 37.4,0 56.1,0 0.1,51.5 0,102.9 0.1,154.3 12.8,0.2 25.7,0 38.5,0.1 0.1,9.2 0,18.3 0.1,27.5 -35,0.2 -69.9,0.1 -104.8,0.1 0,-9.2 -0.2,-18.4 0.1,-27.6 12.8,0 25.6,0.1 38.3,-0.1 0.2,-27.1 0,-54.2 0.1,-81.3 -0.2,-23.5 0.3,-47.1 -0.2,-70.6 -6,8.1 -10.9,17 -16.4,25.4 -32.2,50.8 -64.4,101.6 -96.5,152.5 -0.6,1.3 -1.9,1.9 -3.2,1.7 -10.6,0 -21.2,0.1 -31.8,-0.1 m 284.2,-2.6 C 585,448.7 566.3,440.3 552,427 c -14,-12.5 -24.6,-29.1 -28.6,-47.6 -4.3,-19.4 -2.9,-40.4 5.2,-58.8 6.7,-15.4 18.1,-28.5 31.5,-38.5 25.4,-18.8 60.9,-22 89.9,-10 15.7,6.6 29.1,18 39.3,31.6 23.5,31.3 23.3,78 -0.5,109.1 -9.7,12.7 -22.3,23.4 -36.9,30.1 -14.8,6.7 -31.3,8.8 -47.4,7.4 m 192,-38.7 c -12.2,-1.3 -23.1,-9.4 -29,-20 -5,-9.1 -5.8,-20.2 -2.9,-30 2,-6.9 6.5,-12.7 11.6,-17.6 -8.6,-4.5 -15.7,-11.9 -19.2,-21 -4.7,-11.7 -3.4,-25.8 3.8,-36.2 5.5,-7.8 13.6,-13.8 22.9,-16.1 6,-1.4 12.2,-1.1 18.3,-1.1 7.7,0 15.3,-0.1 23,0.1 0.1,21.6 -0.1,43.3 0.1,64.9 2.9,0 5.9,0 8.8,0.1 0.1,4.3 0.1,8.7 0,13 -3,0 -5.9,0 -8.9,0.1 0,5.4 0,10.8 0,16.2 -4.4,0.1 -8.7,0.1 -13,0 -0.1,-5.4 0,-10.8 -0.1,-16.2 -4.9,-0.1 -9.9,-0.4 -14.8,0.3 -6.7,1.1 -12.5,5.2 -16.4,10.5 -6,8.2 -6.2,20 -0.7,28.4 4.2,6.4 11.2,11.1 19,11.7 6.4,0.5 12.9,0.1 19.4,0.3 0.1,4.3 0.1,8.6 0,12.9 -7.3,-0.1 -14.6,0.4 -21.9,-0.3 M 792.4,247.3 C 774.5,245 757.5,236.9 744.2,224.8 729.8,212 719,194.9 715.1,176 c -4.1,-19.6 -2.5,-40.7 5.9,-59 12.6,-26.9 38.2,-48.1 67.8,-53 18.2,-3 37.3,-1.4 54.2,6 15.4,6.8 28.6,18.1 38.5,31.5 23.2,31.4 22.8,78.1 -1,109 -10.3,13.5 -23.9,24.7 -39.8,31.1 -15.2,6.2 -32.1,7.7 -48.3,5.7 M 55.3,246.9 c 0,-60.6 0,-121.2 0,-181.8 9.2,-0.1 18.4,-0.1 27.6,0 0.1,25.6 -0.1,51.1 0.1,76.7 14,0 28,-0.1 42,0 23.9,0.5 45.7,20.1 49.4,43.6 1.7,11.4 0.2,23.5 -5.4,33.6 -8.7,15.8 -25.5,27.6 -43.9,27.9 -23.3,0.1 -46.6,0.1 -69.8,0 M 177,247 c 0,-60.7 0,-121.3 0.1,-181.9 9.2,0 18.4,-0.1 27.7,0 0.1,14.2 -0.3,28.4 0.1,42.5 20.6,-0.1 41.1,0.1 61.6,0 9,-14.2 17.9,-28.3 26.8,-42.5 10.9,-0.1 21.8,0 32.7,0 -38.3,60.7 -76.6,121.3 -115,181.9 -11.4,0 -22.7,0 -34,0 m 127.2,0.1 c -0.1,-38.7 0,-77.4 0,-116.1 -0.1,-6 0.2,-12.1 1.7,-18 3.6,-16.6 14.8,-31 29.1,-40 13.6,-8.8 30.8,-11.3 46.6,-8.4 28.6,5.2 52,32.1 52.1,61.4 0.1,40.3 0,80.7 0.1,121.1 -9.3,0.2 -18.5,0.1 -27.8,0.1 0,-40.1 0.1,-80.2 0,-120.3 0,-13.5 -8.8,-26.1 -20.7,-32.1 -11.4,-5.7 -25.8,-5 -36.4,2.1 -7.9,5.2 -14.1,13.4 -16.1,22.8 -1.4,6.3 -0.7,12.9 -0.8,19.3 -0.1,36 0,72.1 -0.1,108.2 -9.2,0 -18.5,0.1 -27.7,-0.1 M 442,247 c -0.1,-60.7 -0.1,-121.3 0,-181.9 30.9,0 61.8,-0.1 92.7,0 0,9.2 0.1,18.4 0,27.6 -21.7,0.2 -43.5,-0.3 -65.2,0.2 0,51.4 0.1,102.7 -0.1,154.1 -9.1,0 -18.3,0 -27.4,0 m 154.2,-0.8 c 0,-60.6 0,-121.3 0,-181.9 9.2,0 18.4,0 27.6,0 0.1,25.6 -0.1,51.1 0,76.7 10.4,0 20.7,0 31.1,0 13.4,-25.4 26.3,-51 39.8,-76.3 10.3,-0.9 20.8,-0.1 31.1,-0.4 -13.8,27 -27.9,53.8 -41.8,80.8 14.6,6.5 26.1,19.4 30.2,34.9 3.8,14.2 1.6,30.2 -6.8,42.4 -7.5,10.8 -18.6,19.5 -31.5,22.5 -8.8,2 -17.9,1.3 -26.9,1.4 -17.6,-0.1 -35.2,0.1 -52.8,-0.1 m 375.9,-2.5 c -15.3,-3.4 -29.4,-11.3 -40.8,-22 -13.5,-12.2 -23.7,-28.4 -27.8,-46.3 -4.1,-18 -3.2,-37.3 3.2,-54.7 4.7,-12.8 12.5,-24.3 22.3,-33.7 10.2,-10.2 22.7,-18.1 36.5,-22.4 19.1,-5.9 40.1,-5.5 59.1,1 0.4,10.1 0,20.1 0.2,30.2 -11.6,-6 -24.7,-8.7 -37.7,-7.3 -28.6,2.3 -53.8,26.3 -57.6,54.7 -2.3,15.9 0.8,32.9 10.1,46.2 10.1,14.6 25.7,25.7 43.5,28.3 14.2,2.3 28.9,-0.3 41.6,-6.9 0.1,10 0.1,20.1 0.1,30.1 -16.9,5.9 -35.4,6.7 -52.7,2.8 m 211.3,-9.1 c -9.3,-5.7 -16.7,-14.6 -20,-25 -4.2,-13.4 -4,-29.1 4.1,-41.1 8.6,-12.9 23,-20.5 37.2,-25.9 10.6,-3.9 21.8,-6 31.9,-11.1 6.1,-3.1 12.3,-7 15.6,-13.2 3,-5.6 1.7,-12.6 -1.8,-17.7 -5.4,-7.7 -14.4,-12.4 -23.6,-13.5 -9.7,-1.3 -20,0.3 -28.6,5.1 -5.4,2.8 -9.6,7.5 -12.4,12.9 -8.6,-3 -17.1,-6.3 -25.7,-9.4 7.4,-20.3 28.1,-32.7 48.7,-35.8 21.3,-3.5 44.7,2.6 59.5,18.9 12.1,12.5 16.9,32.2 10,48.5 -5.8,14.1 -18.6,23.7 -32,30.1 -14.5,7.3 -31.4,8.9 -45.5,17.5 -5.4,3.3 -10.9,7.9 -12.2,14.5 -1.3,8.7 2.8,18.1 10.6,22.5 9.8,5.5 21.8,5.9 32.7,4 7.5,-1.2 14.2,-5.2 19.9,-10.3 6.6,6.2 13.3,12.4 19.9,18.7 -9.9,11 -24.1,17.6 -38.7,19.5 -16.9,2.1 -35,0.2 -49.6,-9.2 m -143.6,8.1 c -0.4,-25.2 -0.1,-50.5 -0.2,-75.7 0,-35.4 -0.1,-70.8 0.1,-106.2 9.1,-0.1 18.3,-0.1 27.4,0 0.2,19.3 -0.1,38.7 0.2,58 1.8,4.3 5.6,7.6 8.4,11.3 19.2,-23.1 38,-46.5 57.3,-69.4 11.8,0.1 23.6,-0.2 35.4,0.1 -24.8,30.7 -50.1,60.8 -75,91.3 24.1,30.3 48.6,60.3 72.6,90.6 -11.8,-0.2 -23.6,0.5 -35.3,-0.3 -21.4,-26 -42.2,-52.5 -63.5,-78.5 -0.2,26.3 0.2,52.5 -0.2,78.8 -9,0 -18.1,0 -27.2,0 m 246.4,0 c 0,-60.6 0,-121.3 0,-181.9 30.9,-0.2 61.9,-0.1 92.8,0 0.1,9.1 0.1,18.3 0,27.4 -21.7,0.2 -43.4,0.1 -65.1,0.1 -0.2,16.6 -0.1,33.2 0,49.8 16.7,0.2 33.4,0 50.2,0.1 0.1,9.2 0.1,18.4 0,27.6 -16.8,0.1 -33.5,-0.1 -50.2,0 -0.1,16.4 -0.1,32.8 0,49.2 21.7,0.1 43.4,0 65.1,0.1 0.1,9.2 0.1,18.4 -0.1,27.6 -30.9,0 -61.8,0 -92.7,0 m 103.2,0 c -0.1,-60.6 0,-121.2 -0.1,-181.8 31,-0.4 61.9,-0.2 92.8,-0.1 0.1,9.1 0.1,18.3 0,27.4 -21.7,0.2 -43.4,0.1 -65,0.1 -0.2,16.6 -0.2,33.2 -0.1,49.9 16.7,0.1 33.5,0 50.2,0 0.2,9.2 0.2,18.4 0,27.6 -16.7,0 -33.5,-0.1 -50.2,0 -0.1,16.4 -0.1,32.8 0,49.2 21.7,0.1 43.4,0 65.1,0.1 0.1,9.2 0.2,18.4 0,27.6 -30.9,0 -61.8,0 -92.7,0 m 99.3,0 c -0.4,-6.2 -0.1,-12.5 -0.2,-18.7 0.1,-54.4 -0.1,-108.8 0.1,-163.2 9.2,-0.1 18.3,-0.1 27.5,0 0.2,19.3 -0.2,38.7 0.1,58 1.8,4.3 5.7,7.6 8.5,11.3 15.6,-18.9 31.1,-37.8 46.6,-56.7 3.7,-4.1 6.7,-8.9 10.8,-12.5 11.7,-0.4 23.5,-0.2 35.2,-0.1 -24.7,30.7 -50,60.8 -74.9,91.3 24,30.3 48.5,60.3 72.6,90.6 -11.8,-0.1 -23.6,0.2 -35.5,-0.1 -21,-26.3 -42.1,-52.6 -63.3,-78.7 -0.2,26.3 0.1,52.5 -0.2,78.8 -9.1,0 -18.2,0 -27.3,0 z" /><path
       id="path16"
       style="fill:#404040;fill-opacity:1;fill-rule:nonzero;stroke:#404040;stroke-width:0.09375;stroke-linecap:butt;stroke-linejoin:miter;stroke-miterlimit:10;stroke-dasharray:none;stroke-opacity:1"
       d="m 604.4,422.4 c 14.4,1.8 29.5,-0.5 42,-8 15.1,-9 27,-23.9 30.9,-41.2 3.6,-16.2 1.6,-34 -7.2,-48.3 -8.6,-14 -22.2,-25.3 -38.2,-29.7 -11.4,-3.1 -23.6,-3.2 -35,-0.3 -16.4,4.2 -30.4,15.5 -39.2,29.8 -8.6,13.9 -10.8,31.2 -7.6,47.2 5.4,25.8 28.1,47.2 54.3,50.5 z" /><path
       id="path18"
       style="fill:#404040;fill-opacity:1;fill-rule:nonzero;stroke:#404040;stroke-width:0.09375;stroke-linecap:butt;stroke-linejoin:miter;stroke-miterlimit:10;stroke-dasharray:none;stroke-opacity:1"
       d="m 348.1,410.6 c 11.1,-16.5 21.4,-33.6 32.2,-50.4 3.9,-6.4 8.1,-12.6 11.9,-19.1 -14.7,-0.1 -29.4,0 -44.2,0 0,23.1 -0.1,46.3 0.1,69.5 z" /><path
       id="path20"
       style="fill:#404040;fill-opacity:1;fill-rule:nonzero;stroke:#404040;stroke-width:0.09375;stroke-linecap:butt;stroke-linejoin:miter;stroke-miterlimit:10;stroke-dasharray:none;stroke-opacity:1"
       d="m 772.2,323.8 c 4.4,6 11.3,10.4 18.9,10.7 6.9,0.2 13.8,0 20.8,0.1 0.1,-17.3 0,-34.6 0,-51.8 -7,-0.1 -14,-0.3 -20.9,0 -7.5,0.4 -14.3,4.7 -18.7,10.6 -6.6,8.7 -6.7,21.7 -0.1,30.4 z" /><path
       id="path22"
       style="fill:#404040;fill-opacity:1;fill-rule:nonzero;stroke:#404040;stroke-width:0.09375;stroke-linecap:butt;stroke-linejoin:miter;stroke-miterlimit:10;stroke-dasharray:none;stroke-opacity:1"
       d="m 793.4,219.4 c 15.8,2.7 32.9,0.3 46.5,-8.5 13.7,-8.8 24.6,-22.4 28.8,-38.2 3.1,-12.3 2.9,-25.5 -0.9,-37.6 -4.6,-14.6 -15,-26.9 -27.7,-35.2 -15.2,-9.7 -34.4,-11.9 -51.7,-7.4 -15.9,4.1 -29.4,15 -38.2,28.7 -8.1,12.6 -10.8,28.1 -9,42.9 3.1,27 25.5,50.5 52.2,55.3 z" /><path
       id="path24"
       style="fill:#404040;fill-opacity:1;fill-rule:nonzero;stroke:#404040;stroke-width:0.09375;stroke-linecap:butt;stroke-linejoin:miter;stroke-miterlimit:10;stroke-dasharray:none;stroke-opacity:1"
       d="m 83,219.4 c 13.6,0.1 27.3,0.2 41,0 12.9,-0.4 23.9,-12.5 23.3,-25.4 0.3,-12.9 -11.3,-24.7 -24.2,-24.6 -13.4,0 -26.7,0.1 -40,0 -0.3,16.6 -0.1,33.3 -0.1,50 z" /><path
       id="path26"
       style="fill:#404040;fill-opacity:1;fill-rule:nonzero;stroke:#404040;stroke-width:0.09375;stroke-linecap:butt;stroke-linejoin:miter;stroke-miterlimit:10;stroke-dasharray:none;stroke-opacity:1"
       d="m 623.9,218.7 c 13.4,0 26.8,0.1 40.1,-0.1 7.4,0 14.5,-3.8 19,-9.6 5,-6.2 6.4,-14.8 4.3,-22.4 -2.8,-10.1 -12.7,-18 -23.3,-18 -13.4,0 -26.8,-0.1 -40.2,0.1 0,16.6 -0.1,33.3 0.1,50 z" /><path
       id="path28"
       style="fill:#404040;fill-opacity:1;fill-rule:nonzero;stroke:#404040;stroke-width:0.09375;stroke-linecap:butt;stroke-linejoin:miter;stroke-miterlimit:10;stroke-dasharray:none;stroke-opacity:1"
       d="m 205,204.5 c 10,-14.9 19.3,-30.4 29,-45.5 5,-7.9 10.2,-15.8 15,-23.8 -14.7,0 -29.4,0 -44.2,0 0,23.1 -0.2,46.2 0.2,69.3 z" /></g></svg>