<?xml version="1.0" encoding="UTF-8"?>
<svg version="1.1" viewBox="0 0 409.32 274.72" xml:space="preserve" xmlns="http://www.w3.org/2000/svg"><style>.st0{fill:none;stroke:#fff;stroke-width:4.4713;stroke-linejoin:round;stroke-miterlimit:22.9256}.st1{fill:#4536aa}.st3,.st5{fill:none;stroke:#fff;stroke-width:5.1227;stroke-miterlimit:22.9256}.st5{stroke-linejoin:round}.st6{fill-rule:evenodd;clip-rule:evenodd;fill:#f7bd55}</style><path class="st1" d="m379.55 236.34c0-1.29-0.05-2.18-0.16-2.67-0.1-0.49-0.28-0.86-0.52-1.13-0.37-0.37-0.91-0.61-1.61-0.71-0.71-0.11-1.52-0.16-2.45-0.16-0.98 0-1.79 0.07-2.43 0.2s-1.12 0.38-1.44 0.73c-0.32 0.36-0.52 0.8-0.6 1.34s-0.12 1.34-0.12 2.39h9.33zm5.02 3.16h-14.27l-0.08 1.15c0 1.03 0.09 1.9 0.28 2.61 0.18 0.71 0.52 1.2 1.01 1.46s0.98 0.44 1.48 0.51c0.5 0.08 1.23 0.12 2.17 0.12 0.98 0 1.72-0.03 2.23-0.08s0.98-0.25 1.4-0.59c0.24-0.18 0.42-0.45 0.55-0.79s0.2-0.86 0.2-1.54h5.02c0 1.16-0.15 2.21-0.45 3.14-0.3 0.94-0.8 1.69-1.48 2.27-0.55 0.45-1.35 0.79-2.39 1.03s-2.73 0.36-5.08 0.36c-1.9 0-3.41-0.12-4.55-0.36-1.53-0.32-2.68-0.93-3.46-1.84s-1.31-2.26-1.6-4.05c-0.18-1.19-0.28-2.74-0.28-4.67 0-2.03 0.15-3.72 0.45-5.06 0.3-1.35 0.85-2.41 1.64-3.18 0.79-0.78 1.82-1.32 3.08-1.62 1.27-0.3 2.73-0.45 4.39-0.45 1.53 0 2.95 0.11 4.27 0.34 1.32 0.22 2.35 0.68 3.08 1.36 1.19 1.03 1.92 2.94 2.21 5.73 0.13 1.05 0.18 2.44 0.18 4.15zm-38.69-4.03c0-0.74-0.05-1.3-0.14-1.7s-0.26-0.72-0.49-0.99c-0.24-0.34-0.65-0.61-1.23-0.81s-1.46-0.3-2.65-0.3c-1.05 0-1.85 0.09-2.39 0.28-0.54 0.18-0.96 0.51-1.25 0.99-0.5 0.84-0.75 2.15-0.75 3.92v4.1c0.08 0.87 0.16 1.57 0.24 2.11s0.33 1.05 0.76 1.52c0.35 0.32 0.74 0.53 1.18 0.65s1.04 0.18 1.81 0.18h0.76c1.15 0 1.92-0.04 2.32-0.12 0.39-0.09 0.77-0.3 1.11-0.65 0.21-0.22 0.39-0.61 0.52-1.19s0.2-1.17 0.2-1.75v-0.69h4.94c0 1.34-0.11 2.48-0.32 3.4-0.32 1.45-0.88 2.5-1.7 3.16-0.71 0.58-1.69 0.98-2.93 1.21-1.24 0.22-2.69 0.34-4.35 0.34-2.08 0-3.52-0.08-4.31-0.24-1.32-0.26-2.39-0.82-3.2-1.66-0.82-0.84-1.35-1.9-1.6-3.16-0.25-1.27-0.38-3.03-0.38-5.3 0-2.48 0.12-4.29 0.38-5.44 0.25-1.15 0.72-2.17 1.4-3.07 0.79-0.97 1.94-1.65 3.44-2.02 1-0.24 2.37-0.36 4.11-0.36 1.56 0 2.97 0.11 4.23 0.34 1.26 0.22 2.23 0.57 2.89 1.05 0.87 0.63 1.5 1.62 1.9 2.97 0.29 1 0.44 2.07 0.44 3.2h-4.94zm-34.5 10.91-0.24-0.08c-0.45 1.19-1.3 1.99-2.56 2.41-0.89 0.29-2.24 0.44-4.05 0.44-2.94 0-4.93-0.57-5.98-1.7-1.02-1-1.54-2.6-1.54-4.78 0-1.19 0.14-2.19 0.42-3.01s0.72-1.48 1.32-2c0.61-0.51 1.42-0.89 2.43-1.13 1.02-0.24 2.19-0.36 3.54-0.36 1.63 0 2.81 0.09 3.52 0.28 1.34 0.34 2.24 1.04 2.69 2.1h0.2v-3.16c0-0.55-0.03-1.07-0.08-1.56s-0.18-0.9-0.38-1.25c-0.2-0.34-0.49-0.61-0.89-0.79-0.69-0.32-1.7-0.47-3.04-0.47-0.87 0-1.53 0.03-1.98 0.1s-0.87 0.26-1.26 0.57c-0.21 0.21-0.38 0.52-0.51 0.93s-0.2 0.85-0.2 1.32h-4.98c0-1.29 0.19-2.37 0.57-3.24s0.9-1.51 1.56-1.94c0.84-0.53 1.87-0.85 3.08-0.97s2.15-0.18 2.81-0.18h0.67c1.85 0 3.42 0.12 4.73 0.36 1.3 0.24 2.32 0.69 3.06 1.34 0.61 0.53 1.06 1.27 1.34 2.21 0.29 0.95 0.43 2.06 0.43 3.32v13.76h-4.94zm-8.78-5.89c-0.24 0.29-0.4 0.59-0.49 0.91s-0.14 0.71-0.14 1.19c0 0.24 0.01 0.53 0.02 0.87s0.15 0.74 0.41 1.19 0.7 0.74 1.31 0.89 1.46 0.22 2.57 0.22c1.13 0 1.82-0.01 2.06-0.04 1.05-0.11 1.82-0.47 2.29-1.11 0.18-0.29 0.32-0.64 0.4-1.05s0.12-0.76 0.12-1.05c0-1.19-0.49-2-1.46-2.45-0.69-0.32-1.71-0.48-3.08-0.48-1.21 0-2.09 0.05-2.63 0.14-0.56 0.09-1.01 0.35-1.38 0.77zm-33.24 2.17v-10.68h-2.57v-3.84h2.57v-4.74h4.98v4.74h7.99v3.84h-7.99v10.76c0 1.05 0.13 1.75 0.4 2.1 0.26 0.34 0.86 0.51 1.78 0.51s1.57-0.27 1.94-0.81 0.55-1.3 0.55-2.27v-1.3h4.39c0 3.03-0.41 5.11-1.23 6.25-0.5 0.66-1.26 1.15-2.27 1.46-1.02 0.32-2.14 0.48-3.38 0.48-1.29 0-2.33-0.07-3.12-0.2-1.21-0.21-2.08-0.59-2.61-1.13s-0.9-1.24-1.11-2.1-0.32-1.88-0.32-3.07zm-21.25-14.51h4.94v20.76h-4.94zm0-8.9h4.94v4.23h-4.94zm-21.26 0h4.98v29.66h-4.98zm-21.25 8.9h4.94v20.76h-4.94zm0-8.9h4.94v4.23h-4.94zm-30.07 11.67h0.2c0.51-1.19 1.39-2.02 2.66-2.49 0.9-0.34 2.12-0.51 3.66-0.51s2.78 0.16 3.72 0.47c0.93 0.32 1.74 0.84 2.4 1.56 0.66 0.73 1.12 1.72 1.39 2.99 0.26 1.27 0.39 2.7 0.39 4.31v1.62c0 2.06-0.09 3.6-0.28 4.63-0.32 1.77-0.98 3.11-1.98 4.03-0.63 0.58-1.42 0.99-2.37 1.24s-2.11 0.38-3.48 0.38c-3.19 0-5.3-1.11-6.33-3.32h-0.16l0.16 3.08h-4.94v-29.66h4.94v11.67zm4.98 0.83h-0.72c-0.74 0-1.4 0.1-1.99 0.3s-1.05 0.55-1.4 1.05c-0.34 0.5-0.58 1.19-0.7 2.08-0.12 0.88-0.18 1.84-0.18 2.87v0.91c0 1.53 0.07 2.62 0.22 3.28s0.38 1.24 0.69 1.74c0.32 0.5 0.85 0.86 1.6 1.07s1.48 0.32 2.19 0.32c0.9 0 1.53-0.04 1.9-0.12 0.74-0.16 1.34-0.48 1.82-0.97 0.47-0.49 0.79-1.36 0.95-2.63 0.08-0.66 0.12-1.71 0.12-3.16v-0.75c0-1.08-0.05-1.99-0.14-2.73s-0.32-1.38-0.66-1.92-0.84-0.9-1.48-1.07c-0.63-0.19-1.37-0.27-2.22-0.27zm-31.06 14.63-0.24-0.08c-0.45 1.19-1.3 1.99-2.56 2.41-0.89 0.29-2.24 0.44-4.05 0.44-2.94 0-4.93-0.57-5.98-1.7-1.02-1-1.54-2.6-1.54-4.78 0-1.19 0.14-2.19 0.41-3.01 0.28-0.82 0.72-1.48 1.32-2 0.61-0.51 1.42-0.89 2.43-1.13s2.2-0.36 3.54-0.36c1.63 0 2.81 0.09 3.52 0.28 1.34 0.34 2.24 1.04 2.69 2.1h0.2v-3.16c0-0.55-0.03-1.07-0.08-1.56s-0.18-0.9-0.38-1.25c-0.2-0.34-0.49-0.61-0.89-0.79-0.69-0.32-1.7-0.47-3.05-0.47-0.87 0-1.53 0.03-1.98 0.1s-0.87 0.26-1.27 0.57c-0.21 0.21-0.38 0.52-0.51 0.93s-0.2 0.85-0.2 1.32h-4.98c0-1.29 0.19-2.37 0.57-3.24s0.9-1.51 1.56-1.94c0.84-0.53 1.87-0.85 3.08-0.97s2.15-0.18 2.81-0.18h0.67c1.84 0 3.42 0.12 4.73 0.36 1.3 0.24 2.32 0.69 3.06 1.34 0.61 0.53 1.06 1.27 1.35 2.21 0.29 0.95 0.44 2.06 0.44 3.32v13.76h-4.94zm-8.78-5.89c-0.24 0.29-0.4 0.59-0.49 0.91s-0.14 0.71-0.14 1.19c0 0.24 0.01 0.53 0.02 0.87s0.15 0.74 0.42 1.19c0.26 0.45 0.7 0.74 1.3 0.89 0.61 0.15 1.46 0.22 2.57 0.22 1.14 0 1.82-0.01 2.06-0.04 1.05-0.11 1.82-0.47 2.29-1.11 0.18-0.29 0.32-0.64 0.4-1.05s0.12-0.76 0.12-1.05c0-1.19-0.49-2-1.46-2.45-0.69-0.32-1.71-0.48-3.08-0.48-1.21 0-2.09 0.05-2.63 0.14-0.56 0.09-1.01 0.35-1.38 0.77zm-35.09-3.24v11.66h-5.02v-29.66h5.02v12.06c0.58-1.45 1.57-2.43 2.97-2.93 0.9-0.32 2.14-0.47 3.72-0.47 1.29 0 2.37 0.13 3.22 0.38 0.86 0.25 1.59 0.67 2.19 1.25 0.61 0.58 1.04 1.38 1.31 2.39 0.26 1.02 0.4 2.06 0.4 3.14v13.84h-5.02v-13.21c0-0.87-0.05-1.56-0.16-2.06-0.1-0.5-0.35-0.92-0.75-1.27-0.63-0.47-1.61-0.71-2.93-0.71-1.84 0-3.11 0.4-3.8 1.19-0.42 0.4-0.72 0.95-0.89 1.66-0.18 0.72-0.26 1.63-0.26 2.74zm-25.69-0.91c0-1.29-0.05-2.18-0.16-2.67s-0.28-0.86-0.52-1.13c-0.37-0.37-0.91-0.61-1.61-0.71-0.7-0.11-1.52-0.16-2.45-0.16-0.98 0-1.79 0.07-2.43 0.2s-1.12 0.38-1.44 0.73c-0.32 0.36-0.52 0.8-0.6 1.34s-0.12 1.34-0.12 2.39h9.33zm5.02 3.16h-14.27l-0.08 1.15c0 1.03 0.09 1.9 0.28 2.61 0.18 0.71 0.52 1.2 1.01 1.46s0.98 0.44 1.48 0.51c0.5 0.08 1.23 0.12 2.17 0.12 0.98 0 1.72-0.03 2.23-0.08 0.52-0.05 0.98-0.25 1.4-0.59 0.24-0.18 0.42-0.45 0.55-0.79s0.2-0.86 0.2-1.54h5.02c0 1.16-0.15 2.21-0.46 3.14-0.3 0.94-0.8 1.69-1.48 2.27-0.55 0.45-1.35 0.79-2.39 1.03s-2.74 0.36-5.08 0.36c-1.9 0-3.41-0.12-4.55-0.36-1.53-0.32-2.68-0.93-3.46-1.84s-1.31-2.26-1.6-4.05c-0.18-1.19-0.28-2.74-0.28-4.67 0-2.03 0.15-3.72 0.45-5.06 0.3-1.35 0.85-2.41 1.64-3.18 0.79-0.78 1.82-1.32 3.08-1.62 1.27-0.3 2.73-0.45 4.39-0.45 1.53 0 2.95 0.11 4.27 0.34 1.32 0.22 2.35 0.68 3.08 1.36 1.19 1.03 1.92 2.94 2.21 5.73 0.14 1.05 0.19 2.44 0.19 4.15zm-44.66-8.58h0.24c0.53-1.19 1.33-2.02 2.41-2.49 0.79-0.34 1.81-0.51 3.04-0.51 1.29 0 2.29 0.19 3 0.55 0.71 0.37 1.29 0.92 1.74 1.66 0.26 0.55 0.46 1.19 0.57 1.92 0.12 0.73 0.18 1.48 0.18 2.27v1.78h-4.63c0-1.45-0.05-2.41-0.16-2.89-0.24-1.03-1.04-1.54-2.41-1.54-1.27 0-2.21 0.35-2.83 1.05s-0.93 1.85-0.93 3.46v12.73h-4.94v-20.76h4.86z"/><path class="st1" d="m369.24 124.49c2.8 0 5.81 0.76 9.01 2.28 3.76 1.84 5.65 4 5.65 6.49l-0.24 1.56c-0.24 0.64-0.62 1.1-1.14 1.38s-1.74 0.54-3.66 0.78c-1.2 0-2.22 0.1-3.06 0.3s-1.5 0.78-1.98 1.74l-0.36 1.44c3.68 4.96 6.89 9.61 9.61 13.93 3.04 4.8 4.56 9.77 4.56 14.89 0 6.17-2.08 10.41-6.24 12.73-3.04 1.68-7.69 2.52-13.93 2.52-3.12 0-6.36-0.72-9.73-2.16-4.32-1.84-6.49-4.24-6.49-7.21 0-1.28 0.2-2.38 0.6-3.3s1.2-1.38 2.4-1.38c0.64 0 1.68 0.2 3.12 0.6s2.28 0.6 2.52 0.6c1.2-0.16 2.24-0.6 3.12-1.32s1.32-1.72 1.32-3c-3.28-5.61-6.13-10.69-8.53-15.25-2.72-5.05-4.08-10.05-4.08-15.01 0-4.48 1.56-7.71 4.68-9.67s7.4-2.94 12.85-2.94m-44.18-30.02c3.28 0 6.21 1.28 8.77 3.84s3.84 5.64 3.84 9.25c0 3.6-1.26 6.67-3.78 9.19s-5.46 3.78-8.83 3.78c-3.28 0-6.11-1.26-8.47-3.78s-3.54-5.59-3.54-9.19 1.16-6.68 3.48-9.25c2.32-2.56 5.17-3.84 8.53-3.84zm0.84 29.78c4.72 0 8.17 2.4 10.33 7.21 1.6 3.6 2.4 8.09 2.4 13.45 0 0.88-0.08 1.86-0.24 2.94s-0.32 2.38-0.48 3.9c-0.48 5.84-1.8 12.33-3.96 19.46-2.64 8.89-5.33 13.33-8.05 13.33-2.64 0-5.33-4.1-8.05-12.31s-4.08-14.83-4.08-19.88c0-2.08-0.06-3.66-0.18-4.74s-0.22-1.82-0.3-2.22l0.48-7.09c0-4 1.22-7.35 3.66-10.03 2.45-2.68 5.27-4.02 8.47-4.02zm-71.2 45.28c0.48-0.88 0.94-1.5 1.38-1.86s0.94-0.54 1.5-0.54c1.12 0 2.32 0.2 3.6 0.6 3.36 1.04 5.36 1.56 6.01 1.56 2.56-0.32 4.56-1.54 6.01-3.66 1.44-2.12 2.16-4.58 2.16-7.39 0-3.2-0.88-5.94-2.64-8.23-1.76-2.28-4.24-3.42-7.45-3.42-3.36 0-6.33 1.16-8.89 3.48zm0.24-36.63c1.84-2.32 3.96-4.32 6.36-6.01 3.04-2.08 5.92-3.12 8.65-3.12 7.85 0 13.93 2.92 18.26 8.77 3.84 5.2 5.76 11.73 5.76 19.58 0 7.45-2 14.21-6.01 20.3-4.48 6.81-10.17 10.21-17.05 10.21-3.84 0-7.35-1.08-10.51-3.24s-5.15-4.52-5.95-7.09c0 7.29-0.72 14.37-2.16 21.26-1.68 8.09-3.68 12.13-6.01 12.13-2.16 0-4.04-2.12-5.65-6.37-1.12-3.12-2.22-7.79-3.3-13.99-1.08-6.21-1.96-12.57-2.64-19.1s-1.02-12.39-1.02-17.6c0-3.68 0.06-6.79 0.18-9.31s0.44-4.74 0.96-6.67c0.52-1.92 1.64-3.76 3.36-5.52s3.7-2.64 5.95-2.64c2.56 0 4.84 0.72 6.84 2.16 2.02 1.45 3.34 3.53 3.98 6.25zm-45.26 19.22c-0.24 1.04-0.72 4.44-1.44 10.21s-1.16 9.17-1.32 10.21c-0.56 3.36-1.32 6.21-2.28 8.53s-2.08 3.48-3.36 3.48c-1.44 0-2.72-2.68-3.84-8.05-0.56-2.64-1.08-5.61-1.56-8.89-0.96-7.45-1.9-16.29-2.82-26.54s-1.38-18.42-1.38-24.5c0-5.92 0.52-10.53 1.56-13.81 1.76-5.53 4.97-8.29 9.61-8.29 3.76 0 6.69 2.08 8.77 6.25 1.68 3.36 2.52 7.13 2.52 11.29 0 4.88-0.28 9.93-0.84 15.13-0.09 1.04-1.29 9.36-3.62 24.98zm-59.31-27.63c5.52 0 10.13 1.38 13.81 4.14s5.52 6.59 5.52 11.47l-0.36 3.36c-0.64 3.6-2.68 6.65-6.13 9.13-3.04 2.16-6.49 3.44-10.33 3.84-1.84 0-3.34-0.46-4.5-1.38s-1.74-2.18-1.74-3.78c0.08-0.64 1.18-1.88 3.3-3.72s3.18-4.04 3.18-6.61c0-2-0.52-3.48-1.56-4.44s-2.4-1.44-4.08-1.44c-3.12 0-5.61 1.88-7.45 5.65-1.44 2.96-2.16 6.25-2.16 9.85 0.16 1.68 0.34 2.96 0.54 3.84s0.58 1.84 1.14 2.88c1.2 2.4 3 4.22 5.41 5.47 2.4 1.24 4.88 1.86 7.45 1.86 2.64-0.24 4.69-0.72 6.13-1.44 0.96-0.4 2.96-1.44 6.01-3.12 1.92-1.04 3.36-1.56 4.32-1.56 1.44 0 2.44 0.76 3 2.28 0.32 0.88 0.48 1.76 0.48 2.64 0 4.96-1.6 9.41-4.8 13.33-4.24 5.21-10.45 7.81-18.62 7.81-9.93 0-16.82-2.92-20.66-8.77-2.8-4.24-4.2-10.53-4.2-18.86 0-9.85 2.16-17.61 6.49-23.3 4.64-6.08 11.24-9.13 19.81-9.13z"/><path d="m35 211.71h349.63v2.85h-349.63z" fill="#f7bd55"/><path class="st6" d="M159.75 41.46c-1.38 1.32-3.71 1.52-5.34 4.19l-11.34 18.67c-1.76 2.89-1.17 9.05 1.1 10.43l.68.41c4.32 2.62 14.35-6.01 17.92-11.89l2.27-3.73c1.68-2.77.98-5.66 2.5-8.71-1.77-1.36.21-3.24-1.54-5.41-1.76-2.16-3.8-2.47-6.25-3.96"/><path class="st6" d="M110.76 13.44c-1.23 1.69-3.34.91-5.34 4.19l-1.44 2.38c-1.17 1.92-.95 7.6-1.09 9.81-.13 2.17-.06 2.85.22 4.86.18 1.31.02 1.04-.01 2.32-.04 1.78.38.9.59 2.46.02.15.01 4.72-.01 4.92-.21 2.61-.03 2.63 0 4.91.03 2.29-.76 2.89-.03 4.92.32.88 1.13 3.8.87 4.7 1.86 1.19 2.6 2.98 3.12 3.29l3.4 2.06c2.4 1.46 7.31-1.32 8.26-2.88l.91-1.31 3.47-7.48 2.33-9.91c-.82-1.37.02-10.86-1.34-13.84-1.3-2.85-3.6-10.55-6.82-12.5l-3.74-2.27c-1.08-.65-1.26.41-3.35-.63"/><path class="st6" d="M67.11 33.64l-.62 1.02c-2.01 3.31 1.63 6.98 1.04 9l1.02.62c.25.15 1.82 4.6 3.34 6.41 1.72 2.06 2.91 4.32 3.95 6.55 1.03 2.21 7.64 10.52 10.41 12.2l.68.41c1.11.68 3.15.17 4.03-1.27l.82-1.36c1.15-1.9-5.43-18.1-7.66-19.53.22-3.64-7.41-11.16-7.15-12.71l-3.73-2.27c-1.73-1.05-5.38-.3-6.13.93"/><path class="st6" d="M55.02 106.58c-1.7.97-3.53-.19-5.65-.81-1.96-.58-4.14-.83-5.99-.86-2.21-.03-9.4.32-10.68 2.44-1.24 2.05-1.19 5.32.71 6.48l.68.41c2.92 1.78 4.63 1.42 7.07 2.9 1.22-1.59 6.68-.2 8.57-.41 1.6-.18 7.6-.73 8.94-.11 1.46-2.28 1.32-.65 2.12-1.96l.62-1.02c.68-1.11.55-3.38-1.07-4.37l-.64-.5-4.68-2.19z"/><path class="st6" d="m114.72 165.24c-1.76-3.21-7.99-7.85-10.73-6.35l-1.04 0.57c-2.01 1.1-4.34 16.51-4.11 19.28 0.13 1.63-0.54 3.54-0.49 4.83 0.09 1.96 0.38 3.52 0.39 5.38 0.03 3.25 0.01 7.48 2 11.12l1.72 3.14c1.19 2.18 5.04 2.68 7.52 1.32l1.74-0.95c2.11-1.15 2.84-6.63 3.27-8.7 0.32-1.57 0.22-3.3 0.8-4.74 1.37-3.4 0.12-2.15 0.78-4.74 1.31-5.14 1.65-13.77-1.85-20.16"/><path class="st6" d="M90.45 158.06l.05-2.29c-.95-.91-1.71-1.94-3.01-2.71-5.64-3.35-15.91 8.87-19.84 15.47-2.98 5-5.58 10.55-.63 13.49l1.71 1.02c3.39 2.01 3.82.07 5.66.59 1.51-2.41 3.86-3.38 6.04-7.04l5.62-9.15 4.4-9.38z"/><path class="st6" d="M22.57 155.91c1.89.31 1.82 2.23 5.36 2.53l2.56.22c2.07.18 7.09-2.11 9.11-2.83 1.98-.71 2.57-1.02 4.29-1.98 1.12-.63.92-.4 2.08-.86 1.61-.63.69-.63 2.03-1.37.13-.07 4.23-1.77 4.41-1.83 2.4-.81 2.36-.96 4.4-1.84 2.04-.88 2.82-.49 4.42-1.82.69-.57 3.06-2.29 3.95-2.42.5-1.87 1.88-3.11 2.01-3.62l.83-3.38c.58-2.39-3.39-5.12-5.07-5.27l-1.45-.21-7.74.13-9.57 1.91c-.98 1.14-9.73 4.04-11.99 6.2-2.16 2.06-8.36 6.71-9.14 9.91l-.91 3.72c-.27 1.08.73.82.42 2.81"/><path class="st6" d="M66.84 88.7c1.74-1.78 2.4-.89 3.01-1.89l1.24-2.04c1.63-2.68-.26-6.53-1.25-8.66l-2.3-2.33-6.51-5.35-1.7-1.03.37-.62-5.52-3.9-3.4-2.06c-4.41-2.68-5.24.55-7.49.09l-3.3 5.43c-1.33 2.2-.97 7.37-.03 8.97.84 1.43 4.84 6.5 6.34 7.42l4.75 2.89c4.61 2.79 12.42 4.47 15.79 3.08"/><path class="st6" d="M96.59 148.75c-13.31-5.42-19.89-6.07-25.14-20.46-1.64-4.49-2.58-9.27-2.6-14.05-.02-4.61.96-9.22 2.61-13.52 1.68-4.38 4.03-8.58 7.36-11.89 4.42-4.39 9.64-7.97 15.09-10.98 7.65-4.22 16.32-7.34 25.18-6.72 9.6.67 18.62 5.76 24.73 13.15 5.48 6.63 10.94 14.34 11.79 23.19.26 2.67.04 5.31-.51 7.9-1.52-.19-3.1-.28-4.73-.28-5.62 0-10.73 1.05-15.3 3.16-4.71 2.17-8.69 5.39-11.96 9.67v.04c-4.56 6-7.28 13.5-8.13 22.48-4.08.4-8.23.63-12.22-.21-2.13-.44-4.07-.94-6.17-1.48"/><path class="st6" d="M162.66 93.84c-2.16 3.56-3.19 12.32-.15 14.16l1.16.7c1.97 1.2 15.11-3.73 19.9-6.12.21-.94.45-1.82.72-2.66h.04c1.42-4.46 3.59-7.95 6.51-10.47 3.39-2.92 7.39-4.38 12.01-4.38v.04c1.2 0 2.36.11 3.49.32l.66-1.09c1.47-2.41-.23-6.47-2.97-8.14l-1.93-1.17c-2.33-1.42-8.14.97-10.42 1.73-1.73.57-3.37 1.65-5.12 1.9-4.12.59-2.18 1.1-5.11 1.92-5.81 1.62-14.49 6.19-18.79 13.26"/></svg>
