<?xml version="1.0" encoding="UTF-8" standalone="no"?>
<svg
   version="1.1"
   id="Layer_1"
   x="0"
   y="0"
   viewBox="0 0 409.32 218"
   xml:space="preserve"
   sodipodi:docname="logo01.svg"
   inkscape:version="1.4.2 (ebf0e940, 2025-05-08)"
   inkscape:export-filename="logo01.png"
   inkscape:export-xdpi="96"
   inkscape:export-ydpi="96"
   width="409.32001"
   height="218"
   xmlns:inkscape="http://www.inkscape.org/namespaces/inkscape"
   xmlns:sodipodi="http://sodipodi.sourceforge.net/DTD/sodipodi-0.dtd"
   xmlns="http://www.w3.org/2000/svg"
   xmlns:svg="http://www.w3.org/2000/svg"><defs
     id="defs29" /><sodipodi:namedview
     id="namedview29"
     pagecolor="#ffffff"
     bordercolor="#000000"
     borderopacity="0.25"
     inkscape:showpageshadow="2"
     inkscape:pageopacity="0.0"
     inkscape:pagecheckerboard="0"
     inkscape:deskcolor="#d1d1d1"
     inkscape:zoom="1.0002398"
     inkscape:cx="149.46416"
     inkscape:cy="127.46943"
     inkscape:window-width="1680"
     inkscape:window-height="914"
     inkscape:window-x="0"
     inkscape:window-y="25"
     inkscape:window-maximized="1"
     inkscape:current-layer="layer1" /><style
     id="style1">.st0{fill:none;stroke:#fff;stroke-width:4.4713;stroke-linejoin:round;stroke-miterlimit:22.9256}.st1{fill:#4536aa}.st3,.st5{fill:none;stroke:#fff;stroke-width:5.1227;stroke-miterlimit:22.9256}.st5{stroke-linejoin:round}.st6{fill-rule:evenodd;clip-rule:evenodd;fill:#f7bd55}</style><g
     inkscape:groupmode="layer"
     id="layer2"
     inkscape:label="BACKGROUND"
     style="fill:#1a1a1a" /><g
     inkscape:groupmode="layer"
     id="layer1"
     inkscape:label="LOGO"><path
       class="st1"
       d="m 369.24,124.49 c 2.8,0 5.81,0.76 9.01,2.28 3.76,1.84 5.65,4 5.65,6.49 l -0.24,1.56 c -0.24,0.64 -0.62,1.1 -1.14,1.38 -0.52,0.28 -1.74,0.54 -3.66,0.78 -1.2,0 -2.22,0.1 -3.06,0.3 -0.84,0.2 -1.5,0.78 -1.98,1.74 l -0.36,1.44 c 3.68,4.96 6.89,9.61 9.61,13.93 3.04,4.8 4.56,9.77 4.56,14.89 0,6.17 -2.08,10.41 -6.24,12.73 -3.04,1.68 -7.69,2.52 -13.93,2.52 -3.12,0 -6.36,-0.72 -9.73,-2.16 -4.32,-1.84 -6.49,-4.24 -6.49,-7.21 0,-1.28 0.2,-2.38 0.6,-3.3 0.4,-0.92 1.2,-1.38 2.4,-1.38 0.64,0 1.68,0.2 3.12,0.6 1.44,0.4 2.28,0.6 2.52,0.6 1.2,-0.16 2.24,-0.6 3.12,-1.32 0.88,-0.72 1.32,-1.72 1.32,-3 -3.28,-5.61 -6.13,-10.69 -8.53,-15.25 -2.72,-5.05 -4.08,-10.05 -4.08,-15.01 0,-4.48 1.56,-7.71 4.68,-9.67 3.12,-1.96 7.4,-2.94 12.85,-2.94 M 325.06,94.47 c 3.28,0 6.21,1.28 8.77,3.84 2.56,2.56 3.84,5.64 3.84,9.25 0,3.6 -1.26,6.67 -3.78,9.19 -2.52,2.52 -5.46,3.78 -8.83,3.78 -3.28,0 -6.11,-1.26 -8.47,-3.78 -2.36,-2.52 -3.54,-5.59 -3.54,-9.19 0,-3.6 1.16,-6.68 3.48,-9.25 2.32,-2.56 5.17,-3.84 8.53,-3.84 z m 0.84,29.78 c 4.72,0 8.17,2.4 10.33,7.21 1.6,3.6 2.4,8.09 2.4,13.45 0,0.88 -0.08,1.86 -0.24,2.94 -0.16,1.08 -0.32,2.38 -0.48,3.9 -0.48,5.84 -1.8,12.33 -3.96,19.46 -2.64,8.89 -5.33,13.33 -8.05,13.33 -2.64,0 -5.33,-4.1 -8.05,-12.31 -2.72,-8.21 -4.08,-14.83 -4.08,-19.88 0,-2.08 -0.06,-3.66 -0.18,-4.74 -0.12,-1.08 -0.22,-1.82 -0.3,-2.22 l 0.48,-7.09 c 0,-4 1.22,-7.35 3.66,-10.03 2.45,-2.68 5.27,-4.02 8.47,-4.02 z m -71.2,45.28 c 0.48,-0.88 0.94,-1.5 1.38,-1.86 0.44,-0.36 0.94,-0.54 1.5,-0.54 1.12,0 2.32,0.2 3.6,0.6 3.36,1.04 5.36,1.56 6.01,1.56 2.56,-0.32 4.56,-1.54 6.01,-3.66 1.44,-2.12 2.16,-4.58 2.16,-7.39 0,-3.2 -0.88,-5.94 -2.64,-8.23 -1.76,-2.28 -4.24,-3.42 -7.45,-3.42 -3.36,0 -6.33,1.16 -8.89,3.48 z m 0.24,-36.63 c 1.84,-2.32 3.96,-4.32 6.36,-6.01 3.04,-2.08 5.92,-3.12 8.65,-3.12 7.85,0 13.93,2.92 18.26,8.77 3.84,5.2 5.76,11.73 5.76,19.58 0,7.45 -2,14.21 -6.01,20.3 -4.48,6.81 -10.17,10.21 -17.05,10.21 -3.84,0 -7.35,-1.08 -10.51,-3.24 -3.16,-2.16 -5.15,-4.52 -5.95,-7.09 0,7.29 -0.72,14.37 -2.16,21.26 -1.68,8.09 -3.68,12.13 -6.01,12.13 -2.16,0 -4.04,-2.12 -5.65,-6.37 -1.12,-3.12 -2.22,-7.79 -3.3,-13.99 -1.08,-6.21 -1.96,-12.57 -2.64,-19.1 -0.68,-6.53 -1.02,-12.39 -1.02,-17.6 0,-3.68 0.06,-6.79 0.18,-9.31 0.12,-2.52 0.44,-4.74 0.96,-6.67 0.52,-1.92 1.64,-3.76 3.36,-5.52 1.72,-1.76 3.7,-2.64 5.95,-2.64 2.56,0 4.84,0.72 6.84,2.16 2.02,1.45 3.34,3.53 3.98,6.25 z m -45.26,19.22 c -0.24,1.04 -0.72,4.44 -1.44,10.21 -0.72,5.77 -1.16,9.17 -1.32,10.21 -0.56,3.36 -1.32,6.21 -2.28,8.53 -0.96,2.32 -2.08,3.48 -3.36,3.48 -1.44,0 -2.72,-2.68 -3.84,-8.05 -0.56,-2.64 -1.08,-5.61 -1.56,-8.89 -0.96,-7.45 -1.9,-16.29 -2.82,-26.54 -0.92,-10.25 -1.38,-18.42 -1.38,-24.5 0,-5.92 0.52,-10.53 1.56,-13.81 1.76,-5.53 4.97,-8.29 9.61,-8.29 3.76,0 6.69,2.08 8.77,6.25 1.68,3.36 2.52,7.13 2.52,11.29 0,4.88 -0.28,9.93 -0.84,15.13 -0.09,1.04 -1.29,9.36 -3.62,24.98 z m -59.31,-27.63 c 5.52,0 10.13,1.38 13.81,4.14 3.68,2.76 5.52,6.59 5.52,11.47 l -0.36,3.36 c -0.64,3.6 -2.68,6.65 -6.13,9.13 -3.04,2.16 -6.49,3.44 -10.33,3.84 -1.84,0 -3.34,-0.46 -4.5,-1.38 -1.16,-0.92 -1.74,-2.18 -1.74,-3.78 0.08,-0.64 1.18,-1.88 3.3,-3.72 2.12,-1.84 3.18,-4.04 3.18,-6.61 0,-2 -0.52,-3.48 -1.56,-4.44 -1.04,-0.96 -2.4,-1.44 -4.08,-1.44 -3.12,0 -5.61,1.88 -7.45,5.65 -1.44,2.96 -2.16,6.25 -2.16,9.85 0.16,1.68 0.34,2.96 0.54,3.84 0.2,0.88 0.58,1.84 1.14,2.88 1.2,2.4 3,4.22 5.41,5.47 2.4,1.24 4.88,1.86 7.45,1.86 2.64,-0.24 4.69,-0.72 6.13,-1.44 0.96,-0.4 2.96,-1.44 6.01,-3.12 1.92,-1.04 3.36,-1.56 4.32,-1.56 1.44,0 2.44,0.76 3,2.28 0.32,0.88 0.48,1.76 0.48,2.64 0,4.96 -1.6,9.41 -4.8,13.33 -4.24,5.21 -10.45,7.81 -18.62,7.81 -9.93,0 -16.82,-2.92 -20.66,-8.77 -2.8,-4.24 -4.2,-10.53 -4.2,-18.86 0,-9.85 2.16,-17.61 6.49,-23.3 4.64,-6.08 11.24,-9.13 19.81,-9.13 z"
       id="path4"
       style="fill:#ffffff;fill-opacity:0.930502" /><path
       class="st6"
       d="m 159.75,41.46 c -1.38,1.32 -3.71,1.52 -5.34,4.19 l -11.34,18.67 c -1.76,2.89 -1.17,9.05 1.1,10.43 l 0.68,0.41 c 4.32,2.62 14.35,-6.01 17.92,-11.89 l 2.27,-3.73 c 1.68,-2.77 0.98,-5.66 2.5,-8.71 -1.77,-1.36 0.21,-3.24 -1.54,-5.41 -1.76,-2.16 -3.8,-2.47 -6.25,-3.96"
       id="path9" /><path
       class="st6"
       d="m 110.76,13.44 c -1.23,1.69 -3.34,0.91 -5.34,4.19 l -1.44,2.38 c -1.17,1.92 -0.95,7.6 -1.09,9.81 -0.13,2.17 -0.06,2.85 0.22,4.86 0.18,1.31 0.02,1.04 -0.01,2.32 -0.04,1.78 0.38,0.9 0.59,2.46 0.02,0.15 0.01,4.72 -0.01,4.92 -0.21,2.61 -0.03,2.63 0,4.91 0.03,2.29 -0.76,2.89 -0.03,4.92 0.32,0.88 1.13,3.8 0.87,4.7 1.86,1.19 2.6,2.98 3.12,3.29 l 3.4,2.06 c 2.4,1.46 7.31,-1.32 8.26,-2.88 l 0.91,-1.31 3.47,-7.48 2.33,-9.91 c -0.82,-1.37 0.02,-10.86 -1.34,-13.84 -1.3,-2.85 -3.6,-10.55 -6.82,-12.5 l -3.74,-2.27 c -1.08,-0.65 -1.26,0.41 -3.35,-0.63"
       id="path11" /><path
       class="st6"
       d="m 67.11,33.64 -0.62,1.02 c -2.01,3.31 1.63,6.98 1.04,9 l 1.02,0.62 c 0.25,0.15 1.82,4.6 3.34,6.41 1.72,2.06 2.91,4.32 3.95,6.55 1.03,2.21 7.64,10.52 10.41,12.2 l 0.68,0.41 c 1.11,0.68 3.15,0.17 4.03,-1.27 l 0.82,-1.36 c 1.15,-1.9 -5.43,-18.1 -7.66,-19.53 0.22,-3.64 -7.41,-11.16 -7.15,-12.71 l -3.73,-2.27 c -1.73,-1.05 -5.38,-0.3 -6.13,0.93"
       id="path13" /><path
       class="st6"
       d="m 55.02,106.58 c -1.7,0.97 -3.53,-0.19 -5.65,-0.81 -1.96,-0.58 -4.14,-0.83 -5.99,-0.86 -2.21,-0.03 -9.4,0.32 -10.68,2.44 -1.24,2.05 -1.19,5.32 0.71,6.48 l 0.68,0.41 c 2.92,1.78 4.63,1.42 7.07,2.9 1.22,-1.59 6.68,-0.2 8.57,-0.41 1.6,-0.18 7.6,-0.73 8.94,-0.11 1.46,-2.28 1.32,-0.65 2.12,-1.96 l 0.62,-1.02 c 0.68,-1.11 0.55,-3.38 -1.07,-4.37 l -0.64,-0.5 z"
       id="path15" /><path
       class="st6"
       d="m 114.72,165.24 c -1.76,-3.21 -7.99,-7.85 -10.73,-6.35 l -1.04,0.57 c -2.01,1.1 -4.34,16.51 -4.11,19.28 0.13,1.63 -0.54,3.54 -0.49,4.83 0.09,1.96 0.38,3.52 0.39,5.38 0.03,3.25 0.01,7.48 2,11.12 l 1.72,3.14 c 1.19,2.18 5.04,2.68 7.52,1.32 l 1.74,-0.95 c 2.11,-1.15 2.84,-6.63 3.27,-8.7 0.32,-1.57 0.22,-3.3 0.8,-4.74 1.37,-3.4 0.12,-2.15 0.78,-4.74 1.31,-5.14 1.65,-13.77 -1.85,-20.16"
       id="path17" /><path
       class="st6"
       d="m 90.45,158.06 0.05,-2.29 c -0.95,-0.91 -1.71,-1.94 -3.01,-2.71 -5.64,-3.35 -15.91,8.87 -19.84,15.47 -2.98,5 -5.58,10.55 -0.63,13.49 l 1.71,1.02 c 3.39,2.01 3.82,0.07 5.66,0.59 1.51,-2.41 3.86,-3.38 6.04,-7.04 l 5.62,-9.15 z"
       id="path19" /><path
       class="st6"
       d="m 22.57,155.91 c 1.89,0.31 1.82,2.23 5.36,2.53 l 2.56,0.22 c 2.07,0.18 7.09,-2.11 9.11,-2.83 1.98,-0.71 2.57,-1.02 4.29,-1.98 1.12,-0.63 0.92,-0.4 2.08,-0.86 1.61,-0.63 0.69,-0.63 2.03,-1.37 0.13,-0.07 4.23,-1.77 4.41,-1.83 2.4,-0.81 2.36,-0.96 4.4,-1.84 2.04,-0.88 2.82,-0.49 4.42,-1.82 0.69,-0.57 3.06,-2.29 3.95,-2.42 0.5,-1.87 1.88,-3.11 2.01,-3.62 l 0.83,-3.38 c 0.58,-2.39 -3.39,-5.12 -5.07,-5.27 l -1.45,-0.21 -7.74,0.13 -9.57,1.91 c -0.98,1.14 -9.73,4.04 -11.99,6.2 -2.16,2.06 -8.36,6.71 -9.14,9.91 l -0.91,3.72 c -0.27,1.08 0.73,0.82 0.42,2.81"
       id="path21" /><path
       class="st6"
       d="m 66.84,88.7 c 1.74,-1.78 2.4,-0.89 3.01,-1.89 l 1.24,-2.04 c 1.63,-2.68 -0.26,-6.53 -1.25,-8.66 l -2.3,-2.33 -6.51,-5.35 -1.7,-1.03 0.37,-0.62 -5.52,-3.9 -3.4,-2.06 c -4.41,-2.68 -5.24,0.55 -7.49,0.09 l -3.3,5.43 c -1.33,2.2 -0.97,7.37 -0.03,8.97 0.84,1.43 4.84,6.5 6.34,7.42 l 4.75,2.89 c 4.61,2.79 12.42,4.47 15.79,3.08"
       id="path23" /><path
       class="st6"
       d="m 96.59,148.75 c -13.31,-5.42 -19.89,-6.07 -25.14,-20.46 -1.64,-4.49 -2.58,-9.27 -2.6,-14.05 -0.02,-4.61 0.96,-9.22 2.61,-13.52 1.68,-4.38 4.03,-8.58 7.36,-11.89 4.42,-4.39 9.64,-7.97 15.09,-10.98 7.65,-4.22 16.32,-7.34 25.18,-6.72 9.6,0.67 18.62,5.76 24.73,13.15 5.48,6.63 10.94,14.34 11.79,23.19 0.26,2.67 0.04,5.31 -0.51,7.9 -1.52,-0.19 -3.1,-0.28 -4.73,-0.28 -5.62,0 -10.73,1.05 -15.3,3.16 -4.71,2.17 -8.69,5.39 -11.96,9.67 v 0.04 c -4.56,6 -7.28,13.5 -8.13,22.48 -4.08,0.4 -8.23,0.63 -12.22,-0.21 -2.13,-0.44 -4.07,-0.94 -6.17,-1.48"
       id="path25" /><path
       class="st6"
       d="m 162.66,93.84 c -2.16,3.56 -3.19,12.32 -0.15,14.16 l 1.16,0.7 c 1.97,1.2 15.11,-3.73 19.9,-6.12 0.21,-0.94 0.45,-1.82 0.72,-2.66 h 0.04 c 1.42,-4.46 3.59,-7.95 6.51,-10.47 3.39,-2.92 7.39,-4.38 12.01,-4.38 v 0.04 c 1.2,0 2.36,0.11 3.49,0.32 L 207,84.34 c 1.47,-2.41 -0.23,-6.47 -2.97,-8.14 l -1.93,-1.17 c -2.33,-1.42 -8.14,0.97 -10.42,1.73 -1.73,0.57 -3.37,1.65 -5.12,1.9 -4.12,0.59 -2.18,1.1 -5.11,1.92 -5.81,1.62 -14.49,6.19 -18.79,13.26"
       id="path29" /></g></svg>
