<?xml version="1.0" encoding="UTF-8" standalone="no"?>
<!-- Created with Inkscape (http://www.inkscape.org/) -->

<svg
   xmlns:dc="http://purl.org/dc/elements/1.1/"
   xmlns:cc="http://creativecommons.org/ns#"
   xmlns:rdf="http://www.w3.org/1999/02/22-rdf-syntax-ns#"
   xmlns:svg="http://www.w3.org/2000/svg"
   xmlns="http://www.w3.org/2000/svg"
   xmlns:sodipodi="http://sodipodi.sourceforge.net/DTD/sodipodi-0.dtd"
   xmlns:inkscape="http://www.inkscape.org/namespaces/inkscape"
   width="210mm"
   height="72mm"
   viewBox="0 0 210 72"
   version="1.1"
   id="svg8"
   inkscape:version="0.92.5 (2060ec1f9f, 2020-04-08)"
   sodipodi:docname="logo04.svg">
  <defs
     id="defs2" />
  <sodipodi:namedview
     id="base"
     pagecolor="#d1ffff"
     bordercolor="#666666"
     borderopacity="1.0"
     inkscape:pageopacity="0"
     inkscape:pageshadow="2"
     inkscape:zoom="0.98994949"
     inkscape:cx="542.50041"
     inkscape:cy="145.73112"
     inkscape:document-units="mm"
     inkscape:current-layer="layer1"
     showgrid="false"
     inkscape:window-width="1920"
     inkscape:window-height="948"
     inkscape:window-x="0"
     inkscape:window-y="27"
     inkscape:window-maximized="1"
     height="147mm" />
  <metadata
     id="metadata5">
    <rdf:RDF>
      <cc:Work
         rdf:about="">
        <dc:format>image/svg+xml</dc:format>
        <dc:type
           rdf:resource="http://purl.org/dc/dcmitype/StillImage" />
        <dc:title></dc:title>
      </cc:Work>
    </rdf:RDF>
  </metadata>
  <g
     inkscape:label="Layer 1"
     inkscape:groupmode="layer"
     id="layer1"
     transform="translate(0,-225)">
    <path
       inkscape:connector-curvature="0"
       id="path35"
       d="m 92.058437,294.96266 c -0.150442,-0.0877 -0.158633,-1.32724 -0.158633,-24.01585 0,-23.55964 0.0029,-23.92487 0.175339,-24.01729 0.276987,-0.14823 25.848777,-0.12912 26.050607,0.0194 0.14398,0.10601 0.1524,1.23503 0.13064,17.51778 l -0.0233,17.40447 -8.65184,0.0231 c -6.78339,0.0181 -8.66732,0.0475 -8.72351,0.13597 -0.0395,0.0621 -0.0723,2.99451 -0.0731,6.51652 -10e-4,5.75486 -0.0159,6.40924 -0.14477,6.45868 -0.25499,0.0979 -8.409856,0.0571 -8.581508,-0.0428 z M 109.3496,264.42145 v -8.56626 h -4.26048 -4.26046 l -0.0234,8.47562 c -0.0129,4.66158 -0.004,8.527 0.0202,8.58981 0.0344,0.0901 0.93994,0.10923 4.28385,0.0907 l 4.2403,-0.0236 z m -4.21515,30.55054 c -0.11052,-0.0698 -0.1413,-0.38244 -0.16442,-1.67075 -0.0185,-1.03202 0.007,-1.6499 0.0712,-1.77112 0.0934,-0.17449 0.18109,-0.18614 1.40113,-0.18614 1.07328,0 1.31066,-0.0238 1.35369,-0.13597 0.14072,-0.36672 0.004,-0.40791 -1.35369,-0.40791 -1.19399,0 -1.30926,-0.0145 -1.39535,-0.17534 -0.10294,-0.19236 -0.12311,-0.83925 -0.0363,-1.16334 l 0.0551,-0.20557 2.1419,0.0243 2.1419,0.0243 0.024,2.75385 c 0.0171,1.9564 -0.006,2.78984 -0.0791,2.87808 -0.0816,0.0983 -0.51265,0.12394 -2.0636,0.12284 -1.07827,-7.4e-4 -2.02168,-0.04 -2.09647,-0.0871 z m 2.68711,-1.68022 c 0.10495,-0.27351 -0.14734,-0.41657 -0.68468,-0.38819 -0.47773,0.0252 -0.50837,0.041 -0.53542,0.27603 l -0.0287,0.24929 h 0.59808 c 0.45024,0 0.61109,-0.0339 0.6507,-0.13713 z m 23.10879,1.62635 c -0.12281,-0.12282 -0.14227,-0.49442 -0.1412,-2.69679 7.2e-4,-1.40489 0.0263,-2.64769 0.0568,-2.76178 0.0529,-0.19746 0.091,-0.20618 0.79193,-0.18129 l 0.73637,0.026 0.0244,2.06225 0.0244,2.06225 h 0.58751 0.58752 l 10e-4,-1.88095 c 7.2e-4,-1.03453 0.0263,-1.9743 0.0568,-2.0884 0.0529,-0.19747 0.091,-0.20618 0.79193,-0.1813 l 0.73637,0.0262 0.024,2.75385 c 0.0171,1.9564 -0.006,2.78984 -0.0791,2.87808 -0.0815,0.0983 -0.51643,0.12423 -2.07979,0.12423 -1.67612,0 -1.99834,-0.0216 -2.11913,-0.14245 z m 25.83475,0 c -0.12305,-0.12306 -0.14225,-0.50252 -0.14106,-2.78744 7.3e-4,-1.45474 0.0331,-2.69481 0.0717,-2.7557 0.0488,-0.0767 0.47182,-0.11843 1.381,-0.13596 l 1.31067,-0.0252 0.0453,-0.97806 c 0.0341,-0.73409 0.0793,-0.99943 0.1813,-1.06373 0.19673,-0.12395 1.21271,-0.10856 1.34159,0.0203 0.15637,0.15636 0.15637,7.60311 0,7.75949 -0.0779,0.0779 -0.66734,0.10878 -2.07842,0.10878 -1.66974,0 -1.99136,-0.0216 -2.11211,-0.14244 z m 2.66765,-2.80363 v -1.31439 h -0.58921 -0.58921 v 1.31439 1.31441 h 0.58921 0.58921 z m 23.16711,2.80363 c -0.12306,-0.12306 -0.14226,-0.50252 -0.14106,-2.78744 7.4e-4,-1.45474 0.0349,-2.69782 0.0759,-2.76237 0.0532,-0.0839 0.27916,-0.10976 0.79179,-0.0907 l 0.71732,0.0267 0.0241,2.76477 c 0.0277,3.16844 0.0753,2.99139 -0.80546,2.99139 -0.35194,0 -0.56615,-0.046 -0.66254,-0.14244 z m 23.04084,0.0445 c -0.14549,-0.0847 -0.15851,-0.31536 -0.15724,-2.78467 7.3e-4,-1.48076 0.0343,-2.74404 0.0744,-2.80731 0.0564,-0.0887 0.55818,-0.10653 2.19684,-0.0906 l 2.12382,0.0244 0.0241,2.76476 c 0.022,2.51878 0.0103,2.77485 -0.13063,2.87808 -0.19509,0.14286 -3.88881,0.15663 -4.13128,0.0155 z m 2.65147,-2.84815 v -1.3144 h -0.58921 -0.58922 v 1.3144 1.3144 h 0.58922 0.58921 z m -25.74092,-3.57466 c -0.14897,-0.27835 -0.11678,-1.14848 0.0486,-1.31388 0.17404,-0.17402 1.21469,-0.1994 1.38045,-0.0336 0.0625,0.0625 0.10877,0.36258 0.10877,0.70705 0,0.34446 -0.0461,0.64442 -0.10877,0.70705 -0.0632,0.0632 -0.36592,0.10878 -0.722,0.10878 -0.5135,0 -0.62848,-0.0285 -0.70705,-0.17535 z M 122.5087,281.8561 c -0.0333,-0.0332 -0.0604,-7.87747 -0.0604,-17.43166 0,-13.39009 0.0249,-17.39615 0.10878,-17.48 0.0836,-0.0836 3.10477,-0.10878 13.04687,-0.10878 11.64104,0 12.95238,0.0143 13.08054,0.14245 0.1279,0.1279 0.14245,1.24236 0.14245,10.91201 0,8.916 -0.021,10.78701 -0.12203,10.87086 -0.0876,0.0727 -2.55155,0.10781 -8.7249,0.12441 l -8.60286,0.0231 v 2.03959 2.03959 l 8.60286,0.0231 c 6.17335,0.0165 8.63731,0.0517 8.7249,0.1244 0.0991,0.0823 0.12203,0.89107 0.12203,4.29792 0,2.30815 -0.0248,4.26116 -0.055,4.34002 -0.0499,0.12984 -1.29086,0.14339 -13.12889,0.14339 -7.19062,0 -13.10106,-0.0272 -13.1343,-0.0605 z m 17.32307,-23.98401 0.0244,-2.06225 h -4.26217 -4.26217 v 2.02448 c 0,1.11345 0.0276,2.05207 0.0613,2.08579 0.0337,0.0337 1.94074,0.0497 4.23781,0.0378 l 4.17648,-0.0236 z m 13.2069,23.93145 c -0.0238,-0.0625 -0.0327,-4.98824 -0.0199,-10.94608 l 0.0233,-10.83248 8.65691,-0.0453 8.6569,-0.0453 0.0244,-2.06225 0.0244,-2.06224 h -8.56055 c -4.7083,0 -8.62506,-0.0248 -8.70393,-0.055 -0.12801,-0.0492 -0.14339,-0.52439 -0.14339,-4.43208 0,-3.90766 0.0154,-4.38293 0.14339,-4.43206 0.21614,-0.083 25.90049,-0.0634 26.03153,0.0199 0.0904,0.0573 0.10888,3.62077 0.0907,17.51639 l -0.023,17.44429 -13.07873,0.0229 c -10.41528,0.0182 -13.08756,0 -13.122,-0.0906 z m 17.36253,-10.85545 v -2.0849 h -4.26048 -4.26047 v 2.0849 2.08491 h 4.26047 4.26048 z m 13.18592,10.85514 c -0.0236,-0.0623 -0.0325,-10.88233 -0.0199,-24.04446 l 0.0232,-23.93113 4.31664,-0.0236 c 3.54602,-0.0193 4.33485,-10e-4 4.41874,0.0995 0.0741,0.0893 0.1084,3.07359 0.12513,10.90132 l 0.023,10.77829 h 4.21516 4.21513 l 0.0233,-6.42747 c 0.0166,-4.56469 0.0525,-6.46279 0.1244,-6.54934 0.082,-0.0988 0.89401,-0.12186 4.29778,-0.12186 2.30813,0 4.26115,0.0248 4.34001,0.055 0.1289,0.0495 0.14339,0.7114 0.14339,6.55388 0,4.93379 -0.0263,6.52504 -0.10878,6.60762 -0.0815,0.0816 -1.17238,0.10878 -4.35112,0.10878 h -4.24237 v 4.25958 4.25959 l 4.32845,0.0236 4.32846,0.0236 v 8.74755 8.74756 h -4.39645 -4.39643 l -0.0231,-8.67956 -0.0231,-8.67958 h -4.26002 -4.26001 v 8.55885 c 0,4.70736 -0.0248,8.62337 -0.055,8.70222 -0.0492,0.128 -0.52151,0.1434 -4.39928,0.1434 -3.39203,0 -4.3537,-0.0249 -4.3873,-0.11331 z M 0.10136829,282.04471 c -0.0838484,-0.0838 -0.1087785,-4.07147 -0.1087785,-17.39705 0,-9.50854 0.0247572,-17.35279 0.0550192,-17.43165 0.0498234,-0.12984 1.29133191,-0.1434 13.13429801,-0.1434 11.842969,0 13.08448,0.0135 13.1343,0.1434 0.08232,0.21451 0.06367,8.49551 -0.01942,8.62636 -0.05619,0.0885 -1.940119,0.11785 -8.723507,0.13598 l -8.6518436,0.0231 -0.022969,13.00287 c -0.018141,10.26427 -0.046769,13.01798 -0.1359724,13.07462 -0.1960328,0.12449 -8.53537728,0.0915 -8.66113182,-0.0343 z m 30.54120071,-0.0141 c -0.07494,-0.0903 -0.09591,-4.73576 -0.07909,-17.51777 l 0.02289,-17.39491 13.043689,-0.0229 c 9.564747,-0.0169 13.076498,0.004 13.166659,0.0791 0.102267,0.0848 0.122976,1.90805 0.122976,10.82536 0,5.89781 -0.0248,10.78783 -0.05497,10.86669 -0.04975,0.12934 -0.892082,0.14339 -8.604172,0.14339 -4.702032,0 -8.613674,0.0248 -8.692535,0.055 -0.124815,0.0479 -0.143387,0.31669 -0.143387,2.07523 0,1.75851 0.01858,2.0273 0.143387,2.0752 0.07886,0.0302 3.990503,0.055 8.692535,0.055 7.71209,0 8.55454,0.0141 8.604172,0.14338 0.09918,0.25845 0.06241,8.37569 -0.03878,8.56481 -0.0921,0.1721 -0.333817,0.17534 -13.08758,0.17534 -10.824014,0 -13.010765,-0.0206 -13.095717,-0.12288 z m 17.302954,-23.99046 v -2.0858 l -4.23781,0.0236 -4.237806,0.0236 -0.02437,2.06224 -0.02436,2.06225 h 4.26217 4.262166 z M 61.2026,282.07862 c -0.09045,-0.0575 -0.108891,-3.62076 -0.09065,-17.51638 l 0.02289,-17.44431 8.678973,-0.0231 8.678963,-0.0231 0.02333,-6.50356 0.02333,-6.50356 4.419112,-0.0236 4.419097,-0.0236 v 24.01294 c 0,21.81307 -0.0131,24.01801 -0.143384,24.06799 -0.216133,0.083 -25.900487,0.0634 -26.031529,-0.0199 z m 17.269173,-17.48823 0.02311,-8.63425 h -4.260935 -4.260919 v 8.59648 c 0,4.72807 0.02767,8.62407 0.06138,8.6578 0.03371,0.0337 1.940737,0.0508 4.237795,0.0378 l 4.176478,-0.0236 z"
       style="fill:#ffffff;fill-opacity:1;stroke-width:0.09064826"
       sodipodi:nodetypes="csccscccscccccccscccccccscsccccccccccccccscccccccccccccccccscccccccccccscccccccccccccccccscccccscccccccccccccccccscscccscscscccccccscsccccccscscccccccccscscccccccccccccccccccccscccccscscscccccccccccccscscccscsccccsccccscccscscscsccsccccccccccccscccccccscccccccscscc" />
  </g>
  <g
     inkscape:groupmode="layer"
     id="layer2"
     inkscape:label="Layer 2"
     style="display:inline"
     transform="translate(0,-76)">
    <path
       inkscape:connector-curvature="0"
       id="path27"
       d="m 183.69627,81.353174 c -0.0332,-0.03319 -0.0603,-0.987475 -0.0603,-2.120535 0,-1.794919 0.0185,-2.067188 0.14339,-2.115128 0.18727,-0.07175 8.13754,-0.07175 8.32481,0 0.12509,0.04798 0.14339,0.32553 0.14339,2.175563 v 2.120537 h -4.24536 c -2.33495,0 -4.27256,-0.02716 -4.3058,-0.06049 z M 78.675269,79.080928 v -2.131119 l 4.283146,0.02355 4.283125,0.02355 0.02436,2.107577 0.02436,2.107561 h -4.30747 -4.307462 z"
       style="fill:#e30627;stroke:none;stroke-width:0.09064826"
       sodipodi:nodetypes="csccscsccccccccccc" />
  </g>
</svg>
