<?xml version="1.0" encoding="UTF-8" standalone="no"?>
<!-- Created with Inkscape (http://www.inkscape.org/) -->

<svg
   xmlns:dc="http://purl.org/dc/elements/1.1/"
   xmlns:cc="http://creativecommons.org/ns#"
   xmlns:rdf="http://www.w3.org/1999/02/22-rdf-syntax-ns#"
   xmlns:svg="http://www.w3.org/2000/svg"
   xmlns="http://www.w3.org/2000/svg"
   xmlns:sodipodi="http://sodipodi.sourceforge.net/DTD/sodipodi-0.dtd"
   xmlns:inkscape="http://www.inkscape.org/namespaces/inkscape"
   width="160mm"
   height="148mm"
   viewBox="0 0 160 148"
   version="1.1"
   id="svg8"
   inkscape:version="0.92.5 (2060ec1f9f, 2020-04-08)"
   sodipodi:docname="logo01.svg">
  <defs
     id="defs2" />
  <sodipodi:namedview
     id="base"
     pagecolor="#d1ffff"
     bordercolor="#666666"
     borderopacity="1.0"
     inkscape:pageopacity="0"
     inkscape:pageshadow="2"
     inkscape:zoom="0.7"
     inkscape:cx="241.69707"
     inkscape:cy="330.13513"
     inkscape:document-units="mm"
     inkscape:current-layer="layer1"
     showgrid="false"
     inkscape:window-width="1920"
     inkscape:window-height="948"
     inkscape:window-x="0"
     inkscape:window-y="27"
     inkscape:window-maximized="1" />
  <metadata
     id="metadata5">
    <rdf:RDF>
      <cc:Work
         rdf:about="">
        <dc:format>image/svg+xml</dc:format>
        <dc:type
           rdf:resource="http://purl.org/dc/dcmitype/StillImage" />
        <dc:title></dc:title>
      </cc:Work>
    </rdf:RDF>
  </metadata>
  <g
     inkscape:label="Layer 1"
     inkscape:groupmode="layer"
     id="layer1"
     transform="translate(0,-149)">
    <path
       inkscape:connector-curvature="0"
       id="path35"
       d="m 0.47541133,296.6182 c -0.204426,-0.11913 -0.215552,-1.80345 -0.215552,-32.63268 0,-32.01279 0.0036,-32.50907 0.238248,-32.63464 0.376372,-0.20142 35.12327167,-0.17545 35.39751467,0.0264 0.195642,0.14404 0.207083,1.67815 0.177508,23.80312 l -0.03161,23.64915 -11.756107,0.0314 c -9.217257,0.0246 -11.777137,0.0645 -11.853483,0.18475 -0.05356,0.0844 -0.09822,4.06893 -0.09926,8.85463 -0.0017,7.8197 -0.02163,8.70886 -0.196719,8.77605 -0.34648,0.13295 -11.42728767,0.0776 -11.66053467,-0.0582 z M 23.970597,255.11887 v -11.63981 h -5.789115 -5.789115 l -0.03177,11.51665 c -0.01747,6.33414 -0.0051,11.58647 0.0274,11.67181 0.04666,0.1224 1.277182,0.14843 5.820886,0.12318 l 5.761719,-0.032 z m -5.727529,41.51201 c -0.150177,-0.0948 -0.191994,-0.51966 -0.223413,-2.27021 -0.02517,-1.4023 0.0086,-2.24188 0.09671,-2.40659 0.126896,-0.2371 0.246064,-0.25293 1.903859,-0.25293 1.458368,0 1.780926,-0.0323 1.839392,-0.18475 0.191215,-0.4983 0.0055,-0.55427 -1.839392,-0.55427 -1.622392,0 -1.779023,-0.0197 -1.895997,-0.23826 -0.139876,-0.26137 -0.16729,-1.14037 -0.04929,-1.58074 l 0.07484,-0.27933 2.910412,0.033 2.91041,0.033 0.03262,3.74193 c 0.02317,2.65835 -0.0079,3.79083 -0.107461,3.91072 -0.110817,0.13355 -0.696577,0.16841 -2.804007,0.16692 -1.465158,-10e-4 -2.747065,-0.0544 -2.848684,-0.11839 z m 3.65124,-2.28308 c 0.142616,-0.37164 -0.200211,-0.56603 -0.930343,-0.52747 -0.649132,0.0343 -0.690777,0.0557 -0.727521,0.37507 l -0.03897,0.33873 h 0.812669 c 0.611788,0 0.830344,-0.046 0.88417,-0.18633 z m 31.400183,2.20988 c -0.166886,-0.16688 -0.193326,-0.67182 -0.191876,-3.66439 9.86e-4,-1.90896 0.03566,-3.59767 0.07718,-3.7527 0.07188,-0.26831 0.123609,-0.28016 1.076079,-0.24634 l 1.000571,0.0354 0.03311,2.80218 0.03311,2.80218 h 0.79831 0.79831 l 0.0017,-2.55583 c 9.85e-4,-1.40571 0.03566,-2.68268 0.07718,-2.83771 0.07188,-0.26832 0.123608,-0.28016 1.076078,-0.24635 l 1.000572,0.0356 0.03262,3.74192 c 0.02318,2.65835 -0.0079,3.79083 -0.10746,3.91073 -0.110794,0.13351 -0.701711,0.1688 -2.826003,0.1688 -2.277513,0 -2.715349,-0.0294 -2.879475,-0.19355 z m 35.104202,0 c -0.1672,-0.16721 -0.19329,-0.68282 -0.19167,-3.78757 9.9e-4,-1.97669 0.0449,-3.66169 0.0974,-3.74443 0.0663,-0.10428 0.6411,-0.16093 1.8765,-0.18475 l 1.78093,-0.0343 0.0616,-1.32899 c 0.0463,-0.99748 0.1077,-1.35802 0.24635,-1.44539 0.26731,-0.16843 1.64782,-0.14752 1.82295,0.0276 0.21247,0.21246 0.21247,10.3311 0,10.54359 -0.10589,0.10588 -0.90679,0.1478 -2.82416,0.1478 -2.26884,0 -2.70585,-0.0294 -2.86993,-0.19355 z m 3.6248,-3.80956 v -1.78599 h -0.80062 -0.80062 v 1.78599 1.78601 h 0.80062 0.80062 z m 31.479417,3.80956 c -0.16722,-0.16721 -0.1933,-0.68282 -0.19167,-3.78757 0.001,-1.97669 0.0474,-3.66578 0.1031,-3.7535 0.0723,-0.11407 0.37932,-0.14914 1.07588,-0.12318 l 0.97469,0.0363 0.0328,3.75676 c 0.0376,4.30527 0.10225,4.0647 -1.09445,4.0647 -0.47822,0 -0.76928,-0.0625 -0.90026,-0.19355 z m 31.30784,0.0605 c -0.19769,-0.11515 -0.21538,-0.42852 -0.21366,-3.78381 0.001,-2.01205 0.0466,-3.72859 0.10107,-3.81456 0.0766,-0.12059 0.7585,-0.14871 2.98506,-0.12317 l 2.88584,0.0331 0.0328,3.75676 c 0.0299,3.42251 0.014,3.77046 -0.17749,3.91073 -0.26509,0.19411 -5.28411,0.21282 -5.61358,0.021 z m 3.60281,-3.87007 v -1.786 h -0.80061 -0.80063 v 1.786 1.78601 h 0.80063 0.80061 z m -34.9767,-4.85723 c -0.20243,-0.37822 -0.15869,-1.56056 0.0661,-1.7853 0.23648,-0.23646 1.65052,-0.27095 1.87575,-0.0457 0.085,0.085 0.1478,0.49267 0.1478,0.96074 0,0.46805 -0.0626,0.87564 -0.1478,0.96074 -0.0858,0.0858 -0.49721,0.14781 -0.98105,0.14781 -0.69774,0 -0.85398,-0.0388 -0.96074,-0.23826 z m -81.585696,-9.08182 c -0.04517,-0.0451 -0.08212,-10.70389 -0.08212,-23.6861 0,-18.19442 0.03388,-23.63785 0.147807,-23.75179 0.113585,-0.11358 4.218761,-0.14781 17.728066,-0.14781 15.817826,0 17.599666,0.0194 17.773816,0.19356 0.17379,0.17379 0.19356,1.68812 0.19356,14.82722 0,12.11504 -0.0285,14.65737 -0.16582,14.77131 -0.11901,0.0988 -3.46704,0.14649 -11.855388,0.16904 l -11.689534,0.0314 v 2.77139 2.77139 l 11.689534,0.0314 c 8.388348,0.0225 11.736378,0.0702 11.855388,0.16904 0.13461,0.11178 0.16582,1.21079 0.16582,5.84001 0,3.1363 -0.0337,5.79005 -0.0747,5.8972 -0.0678,0.17643 -1.75401,0.19484 -17.839508,0.19484 -9.770609,0 -17.801696,-0.0369 -17.846858,-0.0822 z m 23.538551,-32.58942 0.03308,-2.80218 h -5.791424 -5.791428 v 2.75086 c 0,1.51296 0.03751,2.78835 0.08334,2.83417 0.04583,0.0458 2.637075,0.069 5.758321,0.0514 l 5.674984,-0.032 z m 17.945508,32.518 c -0.0323,-0.0849 -0.0445,-6.778 -0.0271,-14.87351 l 0.0317,-14.71914 11.76299,-0.0616 11.762977,-0.0616 0.0331,-2.80217 0.0331,-2.80217 H 95.299933 c -6.39763,0 -11.71972,-0.0337 -11.82688,-0.0747 -0.17394,-0.0668 -0.19484,-0.71254 -0.19484,-6.02229 0,-5.30973 0.0209,-5.95552 0.19484,-6.02228 0.29368,-0.11274 35.193527,-0.0862 35.371587,0.027 0.12289,0.0779 0.14794,4.91989 0.12317,23.80123 l -0.0312,23.70327 -17.77135,0.0311 c -14.152257,0.0247 -17.783347,0 -17.830147,-0.12317 z m 23.592167,-14.75035 v -2.83297 h -5.78913 -5.789107 v 2.83297 2.83297 h 5.789107 5.78913 z m 17.917,14.74993 c -0.0321,-0.0847 -0.0442,-14.78688 -0.027,-32.67155 l 0.0315,-32.51758 5.86544,-0.032 c 4.81832,-0.0262 5.89019,-0.002 6.00417,0.1352 0.10075,0.12139 0.1473,4.17639 0.17003,14.81269 l 0.0313,14.64553 h 5.72754 5.72751 l 0.0317,-8.73364 c 0.0225,-6.20249 0.0714,-8.78163 0.16903,-8.89923 0.11143,-0.1343 1.21478,-0.16558 5.83981,-0.16558 3.13629,0 5.79004,0.0337 5.8972,0.0747 0.17515,0.0672 0.19484,0.96665 0.19484,8.9054 0,6.70403 -0.0357,8.86621 -0.14781,8.97842 -0.11071,0.11082 -1.59303,0.14782 -5.91229,0.14782 h -5.76453 v 5.7879 5.78792 l 5.88149,0.032 5.8815,0.032 v 11.88616 11.88616 h -5.97388 -5.97387 l -0.0314,-11.79377 -0.0314,-11.79379 h -5.7885 -5.7885 v 11.62974 c 0,6.39636 -0.0337,11.71742 -0.0747,11.82457 -0.0668,0.17392 -0.70863,0.19484 -5.97774,0.19484 -4.60908,0 -5.91579,-0.0338 -5.96145,-0.15396 z M 0.40766733,226.14865 c -0.113933,-0.11394 -0.147808,-5.53231 -0.147808,-23.63907 0,-12.92019 0.03364,-23.57894 0.07476,-23.6861 0.0677,-0.17642 1.75465897,-0.19484 17.84685767,-0.19484 16.092201,0 17.779163,0.0184 17.846859,0.19484 0.111852,0.29148 0.08652,11.54369 -0.02639,11.72149 -0.07635,0.12021 -2.636229,0.16013 -11.853483,0.18477 l -11.756107,0.0314 -0.03121,17.66827 c -0.02465,13.94707 -0.06355,17.6888 -0.184759,17.76577 -0.266369,0.16915 -11.59785267,0.12435 -11.76872767,-0.0466 z m 41.49931967,-0.0192 c -0.101831,-0.12269 -0.130321,-6.43494 -0.10746,-23.80311 l 0.0311,-23.63616 17.723738,-0.0311 c 12.996558,-0.0229 17.768318,0.006 17.890828,0.10744 0.13896,0.11527 0.1671,2.59266 0.1671,14.70948 0,8.01394 -0.0337,14.65848 -0.0747,14.76564 -0.0676,0.17575 -1.21216,0.19483 -11.691331,0.19483 -6.389112,0 -11.704242,0.0337 -11.811399,0.0747 -0.169598,0.0651 -0.194834,0.43031 -0.194834,2.81981 0,2.38947 0.02524,2.7547 0.194834,2.81979 0.10716,0.0411 5.422287,0.0747 11.811399,0.0747 10.479171,0 11.623891,0.0192 11.691331,0.19483 0.13477,0.35117 0.0848,11.38087 -0.0527,11.63784 -0.12515,0.23385 -0.45359,0.23825 -17.783376,0.23825 -14.707648,0 -17.679001,-0.028 -17.794433,-0.16697 z m 23.511218,-32.59818 v -2.83418 l -5.758327,0.032 -5.758322,0.032 -0.03311,2.80217 -0.0331,2.80219 h 5.791428 5.791421 z m 18.013688,32.66342 c -0.12291,-0.0781 -0.14796,-4.91989 -0.12318,-23.80123 l 0.0311,-23.70328 11.79297,-0.0314 11.792957,-0.0314 0.0317,-8.83702 0.0317,-8.83702 6.00468,-0.032 6.00466,-0.032 v 32.62873 c 0,29.63955 -0.0178,32.63562 -0.19483,32.70353 -0.29368,0.11274 -35.193527,0.0862 -35.371587,-0.027 z m 23.465317,-23.76297 0.0314,-11.7322 h -5.78975 -5.789727 v 11.68087 c 0,6.42449 0.0376,11.71837 0.0834,11.76421 0.0458,0.0458 2.63707,0.069 5.758307,0.0514 l 5.67499,-0.032 z"
       style="fill:#384451;fill-opacity:1;stroke-width:0.12317267"
       sodipodi:nodetypes="csccscccscccccccscccccccscsccccccccccccccscccccccccccccccccscccccccccccscccccccccccccccccscccccscccccccccccccccccscscccscscscccccccscsccccccscscccccccccscscccccccccccccccccccccscccccscscscccccccccccccscscccscsccccsccccscccscscscsccsccccccccccccscccccccscccccccscscc" />
  </g>
  <g
     inkscape:groupmode="layer"
     id="layer2"
     inkscape:label="Layer 2"
     style="display:inline">
    <path
       inkscape:connector-curvature="0"
       id="path27"
       d="m 124.99271,59.107917 c -0.0451,-0.0451 -0.082,-1.341779 -0.082,-2.881379 0,-2.438932 0.0251,-2.808891 0.19484,-2.874031 0.25446,-0.0975 11.05728,-0.0975 11.31174,0 0.16997,0.0652 0.19483,0.44233 0.19483,2.95615 v 2.881381 h -5.76858 c -3.17273,0 -5.80555,-0.0369 -5.85071,-0.0822 z M 107.17372,3.822757 V 0.92699686 l 5.81993,0.032 5.8199,0.032 0.0331,2.86377024 0.0331,2.8637499 h -5.85298 -5.85297 z"
       style="fill:#e30627;stroke:none;stroke-width:0.12317267"
       sodipodi:nodetypes="csccscsccccccccccc" />
  </g>
</svg>
