<?xml version="1.0" encoding="UTF-8" standalone="no"?>
<svg
   xmlns:dc="http://purl.org/dc/elements/1.1/"
   xmlns:cc="http://creativecommons.org/ns#"
   xmlns:rdf="http://www.w3.org/1999/02/22-rdf-syntax-ns#"
   xmlns:svg="http://www.w3.org/2000/svg"
   xmlns="http://www.w3.org/2000/svg"
   viewBox="0 0 2210.6667 689.33331"
   height="689.33331"
   width="2210.6667"
   xml:space="preserve"
   id="svg2"
   version="1.1"><metadata
     id="metadata8"><rdf:RDF><cc:Work
         rdf:about=""><dc:format>image/svg+xml</dc:format><dc:type
           rdf:resource="http://purl.org/dc/dcmitype/StillImage" /></cc:Work></rdf:RDF></metadata><defs
     id="defs6" /><g
     transform="matrix(1.3333333,0,0,-1.3333333,0,689.33333)"
     id="g10"><path
       id="path12"
       style="fill:#404040;fill-opacity:1;fill-rule:nonzero;stroke:#404040;stroke-width:0.09375;stroke-linecap:butt;stroke-linejoin:miter;stroke-miterlimit:10;stroke-dasharray:none;stroke-opacity:1"
       d="M 0,517 H 1658 V 0 H 0 v 517 m 11,-12 c 0,-164.3 0,-328.7 0,-493 545,0 1090,0 1635,0 0,164.3 0,328.7 0,493 -545,0 -1090,0 -1635,0 z" /><path
       id="path14"
       style="fill:#404040;fill-opacity:1;fill-rule:nonzero;stroke:#404040;stroke-width:0.09375;stroke-linecap:butt;stroke-linejoin:miter;stroke-miterlimit:10;stroke-dasharray:none;stroke-opacity:1"
       d="m 86.1,451.9 c 14.4,6.1 30.6,6.8 45.8,4 13,-2.4 25.5,-8.8 34.2,-18.8 -6.6,-6.2 -13.2,-12.5 -20,-18.6 -6,5.8 -13.6,9.7 -21.9,10.7 -10.4,1.3 -21.6,0.8 -30.8,-4.6 -7.7,-4.4 -11.7,-13.9 -10.3,-22.5 1.2,-5.6 5.5,-9.9 10,-13 10.2,-6.8 22.3,-9.6 33.8,-13.3 14.5,-4.9 28.9,-12 38.9,-24 7.8,-9.3 11.7,-22 9.7,-34 -1.9,-14.8 -11.6,-27.5 -23.9,-35.5 -10.7,-7.2 -23.7,-10.6 -36.6,-10.4 -17.5,-0.1 -35.2,6.1 -48.1,18 -5.3,5.3 -10,11.5 -12.1,18.8 8.6,3 17,6.5 25.7,9.2 3.6,-8.3 11.7,-13.7 20.1,-16.2 8.2,-2.4 17.1,-2.9 25.4,-0.8 7.6,1.9 14.7,6.5 19.1,13 3.5,5.3 4.5,12.6 1.1,18.2 -4,6.5 -10.9,10.4 -17.6,13.5 -11,5 -23.1,7 -34.2,11.8 -12.8,5.4 -25.5,13 -33,25 -7.9,12.4 -7.7,28.5 -2.8,42 4.6,12.7 15.3,22.3 27.5,27.5 z" /><path
       id="path16"
       style="fill:#404040;fill-opacity:1;fill-rule:nonzero;stroke:#404040;stroke-width:0.09375;stroke-linecap:butt;stroke-linejoin:miter;stroke-miterlimit:10;stroke-dasharray:none;stroke-opacity:1"
       d="m 429.1,452.6 c 34.8,-0.2 69.7,-0.1 104.5,0 0.1,-9.2 0,-18.3 0.1,-27.5 -12.9,-0.4 -25.8,0 -38.6,-0.2 -0.1,-51.4 0,-102.9 -0.1,-154.3 -19,-0.2 -38,0 -57,-0.1 -1.9,-0.4 -3.1,1.1 -4,2.5 -8.3,13.4 -16.8,26.6 -25.2,39.9 -20.6,0.2 -41.2,0.1 -61.8,0.1 0,-14.1 0,-28.3 0,-42.4 -9.3,-0.1 -18.5,-0.4 -27.8,0.2 0.1,60.5 0.1,120.9 0,181.4 11.3,0.6 22.6,0.2 33.9,0.3 35.9,-56.3 71.4,-112.9 107.2,-169.3 2.2,-3.4 4,-7 6.8,-10 0.6,16.3 0.1,32.5 0.3,48.8 -0.1,34.3 0.1,68.6 -0.1,102.9 -12.8,0.1 -25.6,0 -38.4,0.1 0,9.2 -0.3,18.4 0.2,27.6 m -82,-42.4 c -0.3,-23.2 0,-46.3 -0.1,-69.5 14.7,-0.1 29.4,-0.2 44.1,0 -14.4,23.3 -29.2,46.5 -44,69.5 z" /><path
       id="path18"
       style="fill:#404040;fill-opacity:1;fill-rule:nonzero;stroke:#404040;stroke-width:0.09375;stroke-linecap:butt;stroke-linejoin:miter;stroke-miterlimit:10;stroke-dasharray:none;stroke-opacity:1"
       d="m 181,452.2 c 9.2,-0.1 18.4,0.3 27.6,-0.2 -0.1,-23.7 0,-47.4 -0.1,-71 0,-1.9 0.2,-3.8 0.4,-5.7 24.5,0.2 49.1,0.1 73.7,0.1 0,25.7 -0.1,51.3 0,77 9.2,0.2 18.3,0.2 27.5,0 0.1,-60.6 0.1,-121.2 0,-181.8 -9.2,-0.2 -18.3,-0.2 -27.5,0 -0.1,25.7 -0.1,51.4 0,77.1 -24.6,0.2 -49.2,0 -73.9,0.1 -0.3,-25.8 0,-51.6 -0.1,-77.4 -9.2,0.1 -18.3,0.2 -27.5,0 -0.4,30.9 0,61.7 -0.1,92.6 0,29.7 -0.1,59.4 0,89.2 z" /><path
       id="path20"
       style="fill:#404040;fill-opacity:1;fill-rule:nonzero;stroke:#404040;stroke-width:0.09375;stroke-linecap:butt;stroke-linejoin:miter;stroke-miterlimit:10;stroke-dasharray:none;stroke-opacity:1"
       d="m 599.5,449.3 c 17.7,2.3 36.2,0.2 52.4,-7.4 14.1,-6.6 26.2,-17.1 35.7,-29.3 23.9,-31 24.2,-77.8 0.9,-109.1 -9.6,-13.1 -22.4,-24 -37.1,-30.9 -17.2,-7.8 -36.8,-9.7 -55.4,-6.6 -28.9,4.7 -54,25.1 -67,51 -9.2,18.7 -11,40.6 -6.9,60.9 4,19.2 15,36.5 29.7,49.3 13.2,12 30,19.9 47.7,22.1 m 0.9,-27.9 c -26.4,-4.8 -48.6,-27.8 -52,-54.4 -2,-14.8 0.5,-30.4 8.5,-43.1 9,-14.5 23.4,-25.9 40.2,-29.8 16.6,-3.9 34.9,-1.7 49.4,7.4 10.3,6.5 19,15.7 24.6,26.4 7,13.7 8.5,29.8 5.2,44.7 -3.9,17.5 -16,32.5 -31.2,41.5 -13.4,7.9 -29.6,9.9 -44.7,7.3 z" /><path
       id="path22"
       style="fill:#404040;fill-opacity:1;fill-rule:nonzero;stroke:#404040;stroke-width:0.09375;stroke-linecap:butt;stroke-linejoin:miter;stroke-miterlimit:10;stroke-dasharray:none;stroke-opacity:1"
       d="m 767.8,393.2 c 6.5,10.3 17.9,17.7 30.2,18.1 6.5,0.1 13.1,0.4 19.6,-0.2 -0.1,-4.2 -0.1,-8.5 -0.1,-12.7 -8.9,-0.5 -18.3,1.4 -26.9,-2 -9.4,-4.1 -16.2,-14.1 -15.6,-24.5 0.1,-12.1 10.2,-23.1 22.2,-24.4 4.5,-0.5 9.1,-0.2 13.7,-0.3 0.1,5.5 -0.1,11 0.2,16.5 4.3,-0.1 8.5,-0.1 12.8,0 0.2,-5.5 0,-11 0.2,-16.5 2.9,0 5.9,0 8.8,-0.1 0.1,-4.3 0.1,-8.7 0,-13 -3,0 -5.9,0 -8.9,-0.1 -0.1,-21.6 0.1,-43.3 0,-64.9 -11.4,0 -22.7,-0.2 -34,0.1 -18.8,0.6 -35.6,16.9 -36.6,35.8 -1.6,15.7 7.7,31.5 21.8,38.4 -5,5.2 -9.8,11 -11.7,18.2 -3,10.5 -1.7,22.4 4.3,31.6 M 771,323 c -6.5,-8.8 -6.2,-21.9 0.6,-30.5 4.4,-5.7 11.1,-9.8 18.4,-10.2 6.9,-0.3 13.9,0 20.9,-0.1 0.1,17.3 0,34.5 0,51.8 -6.6,0.1 -13.3,0.1 -20,0 -7.9,0 -15.4,-4.6 -19.9,-11 z" /><path
       id="path24"
       style="fill:#404040;fill-opacity:1;fill-rule:nonzero;stroke:#404040;stroke-width:0.09375;stroke-linecap:butt;stroke-linejoin:miter;stroke-miterlimit:10;stroke-dasharray:none;stroke-opacity:1"
       d="m 796.5,247.3 c 16,1.3 32.4,-1 47,-7.8 15.8,-7.4 29.3,-19.5 39.1,-33.9 10.5,-15.3 15.4,-34.1 14.9,-52.6 -0.1,-17.7 -5.4,-35.4 -15.6,-50 -9.1,-13 -21.3,-24.1 -35.5,-31.4 -18,-9.1 -38.9,-11.5 -58.7,-8.1 -30.4,5.1 -56.7,27.3 -68.8,55.4 -7.8,18.6 -8.9,39.8 -4.2,59.4 4.5,18.4 15.5,34.8 29.8,47.2 14.4,12.7 32.9,20.5 52,21.8 m -1.1,-28 c -27.3,-3.3 -50.7,-26.4 -54.9,-53.5 -2.3,-15 0,-31.1 8.1,-44.1 9,-14.5 23.3,-26.1 40,-30.1 10.7,-2.5 22,-2.5 32.7,0.1 16.2,4 30.1,15.1 39,29 9.4,14.5 11.6,32.9 7.8,49.6 -3.7,16.3 -14.5,30.4 -28.3,39.5 -12.9,8.6 -29.1,11.6 -44.4,9.5 z" /><path
       id="path26"
       style="fill:#404040;fill-opacity:1;fill-rule:nonzero;stroke:#404040;stroke-width:0.09375;stroke-linecap:butt;stroke-linejoin:miter;stroke-miterlimit:10;stroke-dasharray:none;stroke-opacity:1"
       d="m 303.2,246.7 c 9.2,0 18.5,0 27.7,0 0.2,-36.9 0,-73.8 0,-110.7 0.1,-5.9 -0.4,-12 1.1,-17.8 2.2,-9.1 8.4,-16.9 16.2,-22 9.9,-6.4 22.9,-7.4 33.8,-3 12.9,5.5 22.8,18.4 23,32.7 0.1,40.3 -0.1,80.6 0.1,120.8 9.2,0 18.4,0 27.6,0 0.1,-39.9 0.1,-79.8 0,-119.7 0.1,-15.8 -6,-31.4 -16.8,-42.9 -10.6,-11.7 -25.4,-19.5 -41.2,-20.8 -15,-1.5 -30.5,1.9 -42.9,10.6 -12.6,8.6 -22.4,21.5 -26.4,36.3 -1.8,6.5 -2.3,13.2 -2.2,19.8 0,38.9 -0.1,77.8 0,116.7 z" /><path
       id="path28"
       style="fill:#404040;fill-opacity:1;fill-rule:nonzero;stroke:#404040;stroke-width:0.09375;stroke-linecap:butt;stroke-linejoin:miter;stroke-miterlimit:10;stroke-dasharray:none;stroke-opacity:1"
       d="m 441.1,246.6 c 9.1,-0.2 18.3,0 27.4,-0.1 0.2,-51.5 -0.3,-102.9 0.2,-154.3 21.7,0 43.4,0.2 65,-0.1 0,-9.1 0,-18.2 0.1,-27.3 -31,-0.4 -61.9,-0.2 -92.8,-0.1 -0.1,54.1 0,108.2 -0.1,162.3 0.1,6.5 -0.1,13.1 0.2,19.6 z" /><path
       id="path30"
       style="fill:#404040;fill-opacity:1;fill-rule:nonzero;stroke:#404040;stroke-width:0.09375;stroke-linecap:butt;stroke-linejoin:miter;stroke-miterlimit:10;stroke-dasharray:none;stroke-opacity:1"
       d="m 54.2,246.2 c 17.6,0.6 35.2,0.1 52.8,0.3 9.3,-0.2 18.7,0.8 27.8,-1.6 12.6,-3.1 23.5,-11.7 30.8,-22.3 6.8,-10 9.4,-22.5 8.2,-34.5 -2.1,-24.8 -24.7,-46.2 -49.7,-46.8 -14.1,-0.1 -28.1,0.1 -42.2,-0.1 -0.1,-25.5 0,-51 0,-76.5 -9.2,-0.1 -18.4,-0.3 -27.6,0.1 0,60.5 0,121 -0.1,181.4 M 81.9,219 c 0,-16.7 -0.1,-33.3 0,-50 13.4,-0.1 26.8,0 40.2,0 11.3,-0.2 21.9,8.9 23.8,20 1.2,6.5 0,13.6 -3.9,19 -4.4,6.6 -12,10.9 -19.9,10.9 -13.4,0.2 -26.8,0.1 -40.2,0.1 z" /><path
       id="path32"
       style="fill:#404040;fill-opacity:1;fill-rule:nonzero;stroke:#404040;stroke-width:0.09375;stroke-linecap:butt;stroke-linejoin:miter;stroke-miterlimit:10;stroke-dasharray:none;stroke-opacity:1"
       d="m 176,246.4 c 11.4,0.2 22.7,0.1 34,0 31.8,-50 63.4,-100.2 95.1,-150.2 6.5,-10.6 13.5,-20.7 19.6,-31.5 -9.3,-0.3 -18.5,0 -27.7,-0.1 -2,0.2 -4.8,-0.6 -5.7,1.7 -8.5,13.6 -17.1,27 -25.6,40.6 -20.6,0.3 -41.2,0.1 -61.9,0.1 -0.1,-14.1 0,-28.1 0,-42.2 -9.3,-0.4 -18.5,-0.2 -27.8,-0.1 0,60.6 0,121.1 0,181.7 m 28,-42.7 c -0.5,-23 -0.2,-45.9 -0.2,-68.9 14.7,-0.1 29.3,-0.2 43.9,0 -1.8,3.7 -4.2,7.1 -6.3,10.6 -10.4,16.3 -20.7,32.6 -31.1,49 -2,3.1 -3.8,6.4 -6.3,9.3 z" /><path
       id="path34"
       style="fill:#404040;fill-opacity:1;fill-rule:nonzero;stroke:#404040;stroke-width:0.09375;stroke-linecap:butt;stroke-linejoin:miter;stroke-miterlimit:10;stroke-dasharray:none;stroke-opacity:1"
       d="m 595.2,245.8 c 22.3,0 44.6,0 66.8,0 19.9,0.6 38.6,-11.8 47.5,-29.2 8.1,-16 7.2,-36.3 -2.6,-51.4 -5.7,-9.1 -14.1,-16.3 -23.8,-20.5 13.5,-27.1 28.1,-53.7 41.5,-80.8 -9.9,-0.2 -19.7,-0.2 -29.6,-0.1 -1.5,-0.2 -2,1.6 -2.6,2.6 -12.8,24.7 -25.6,49.3 -38.4,74 -10.4,0.2 -20.8,0.2 -31.1,0 -0.2,-25.5 -0.1,-51 -0.1,-76.5 -9.2,-0.2 -18.4,-0.2 -27.6,0 0,60.6 0,121.3 0,181.9 m 27.6,-27.7 c 0,-16.6 -0.1,-33.3 0.1,-50 13.4,0 26.8,-0.1 40.2,0 13,0 24.6,11.9 24.2,24.9 0.5,13.1 -11.1,25.2 -24.3,25.1 -13.4,0.2 -26.8,0.1 -40.2,0 z" /><path
       id="path36"
       style="fill:#404040;fill-opacity:1;fill-rule:nonzero;stroke:#404040;stroke-width:0.09375;stroke-linecap:butt;stroke-linejoin:miter;stroke-miterlimit:10;stroke-dasharray:none;stroke-opacity:1"
       d="m 962.3,240.7 c 19.8,6.7 41.6,6.4 61.4,-0.2 0.2,-10.1 0,-20.2 0.1,-30.3 -14.4,7.8 -31.7,9.8 -47.6,5.8 -15.7,-3.9 -29.2,-14.7 -38.2,-28 -9,-13.4 -11.9,-30.3 -9.4,-46.1 4.3,-28.7 30.3,-52.7 59.4,-54.1 12.3,-1 24.7,2 35.7,7.3 0.1,-9.9 0.1,-19.9 0,-29.9 -17,-6 -35.7,-6.8 -53.3,-2.7 -14.5,3.4 -28,10.8 -39.1,20.8 -11.1,10 -20.3,22.5 -25.5,36.6 -6.1,16.3 -7.2,34.2 -4.1,51.2 3.1,16.6 11.2,32.1 22.8,44.4 10.4,11.2 23.3,20.3 37.8,25.2 z" /><path
       id="path38"
       style="fill:#404040;fill-opacity:1;fill-rule:nonzero;stroke:#404040;stroke-width:0.09375;stroke-linecap:butt;stroke-linejoin:miter;stroke-miterlimit:10;stroke-dasharray:none;stroke-opacity:1"
       d="m 1183.3,234.7 c 14.5,9 32.4,10.7 49.1,8.5 14.4,-1.9 28.4,-8.5 38.3,-19.3 -6.5,-6.5 -13.4,-12.5 -20,-18.9 -5.5,5.1 -12.1,9.1 -19.6,10.4 -10.6,1.9 -22.2,1.5 -32,-3.5 -8.5,-4.2 -13.1,-14.3 -11.4,-23.5 1.3,-5.7 5.9,-9.9 10.6,-13.1 14,-9.1 31.2,-10.7 46,-18 13,-6 25.5,-14.9 31.9,-28 7.9,-15.9 4.3,-36.1 -7.3,-49.2 -11.6,-13.6 -29.2,-21.3 -46.9,-21.6 -17.4,-0.6 -35.1,4.9 -48.4,16.1 -6.5,5.5 -11.7,12.7 -14.4,20.7 8.6,3 17.1,6.3 25.6,9.4 2.8,-5.7 7.2,-10.4 12.7,-13.2 9.6,-5.1 20.9,-6.6 31.5,-4.4 7.9,1.7 15.4,6.1 20.2,12.7 3.4,4.8 4.9,11.4 2.5,16.9 -2.4,5.6 -7.5,9.5 -12.6,12.4 -7.4,4.2 -15.6,6.9 -23.7,9.2 -12.4,3.7 -24.7,8.4 -35.2,15.9 -7.4,5.2 -13.9,12.2 -17.3,20.7 -4.4,10.6 -3.9,22.8 -0.6,33.7 3.3,11 11.2,20.3 21,26.1 z" /><path
       id="path40"
       style="fill:#404040;fill-opacity:1;fill-rule:nonzero;stroke:#404040;stroke-width:0.09375;stroke-linecap:butt;stroke-linejoin:miter;stroke-miterlimit:10;stroke-dasharray:none;stroke-opacity:1"
       d="m 1038.7,242.1 c 9.1,0.2 18.3,0.1 27.4,0 0.2,-26.1 0,-52.3 0.1,-78.4 12.1,14 23.3,28.8 35,43.1 8.8,10.9 17.6,21.7 26.3,32.7 1.1,1.4 2.4,3.1 4.5,2.7 10.9,-0.1 21.8,0.2 32.7,-0.1 -11.6,-15.3 -24,-30 -35.8,-45 -12.2,-15.1 -24.3,-30.2 -36.5,-45.3 24.2,-29.9 48.9,-59.4 73.2,-89.2 0.6,-0.7 1.1,-1.5 1.7,-2.3 -10.5,-0.2 -20.9,0 -31.4,-0.1 -1.8,0.1 -4.2,-0.5 -5.3,1.4 -17.8,21.8 -35.8,43.5 -53.7,65.4 -0.8,0.5 -1.4,2.5 -2.6,1.9 -2.7,-2.7 -5,-5.8 -7.3,-8.8 -1,-1.1 -0.8,-2.7 -0.8,-4 -0.1,-18.6 0.1,-37.3 -0.1,-55.9 -9.1,0 -18.2,0 -27.3,0 -0.4,29.6 -0.1,59.2 -0.2,88.8 0.1,31 -0.1,62.1 0.1,93.1 z" /><path
       id="path42"
       style="fill:#404040;fill-opacity:1;fill-rule:nonzero;stroke:#404040;stroke-width:0.09375;stroke-linecap:butt;stroke-linejoin:miter;stroke-miterlimit:10;stroke-dasharray:none;stroke-opacity:1"
       d="m 1285.2,242.1 c 30.9,0.2 61.9,0.1 92.8,0.1 0.1,-9.2 0,-18.4 0,-27.5 -21.6,-0.2 -43.3,-0.1 -65,0 -0.4,-16.5 -0.2,-33 0,-49.4 16.7,0 33.4,0.1 50.1,-0.1 0.1,-9.1 0.1,-18.3 0,-27.4 -16.7,-0.2 -33.4,-0.1 -50.1,-0.1 -0.4,-16.6 -0.1,-33.2 -0.1,-49.8 21.7,-0.2 43.4,-0.1 65,-0.1 0.2,-9.2 0.2,-18.4 0,-27.6 -30.9,0 -61.8,0 -92.7,0 0,60.6 0,121.3 0,181.9 z" /><path
       id="path44"
       style="fill:#404040;fill-opacity:1;fill-rule:nonzero;stroke:#404040;stroke-width:0.09375;stroke-linecap:butt;stroke-linejoin:miter;stroke-miterlimit:10;stroke-dasharray:none;stroke-opacity:1"
       d="m 1388.3,242 c 30.9,0.4 61.9,0.2 92.8,0.1 0.1,-9.1 0.1,-18.3 0,-27.4 -21.7,-0.2 -43.3,-0.1 -65,0 -0.3,-16.5 -0.2,-33 0,-49.4 16.7,0 33.4,0.1 50.1,-0.1 0.1,-9.1 0.1,-18.3 0,-27.4 -16.7,-0.2 -33.4,-0.1 -50.1,-0.1 -0.3,-16.6 -0.1,-33.2 -0.1,-49.9 21.7,-0.1 43.4,0 65.1,0 0.2,-9.2 0.2,-18.4 0,-27.6 -30.9,0 -61.9,0 -92.8,0 0.1,60.6 0.1,121.2 0,181.8 z" /><path
       id="path46"
       style="fill:#404040;fill-opacity:1;fill-rule:nonzero;stroke:#404040;stroke-width:0.09375;stroke-linecap:butt;stroke-linejoin:miter;stroke-miterlimit:10;stroke-dasharray:none;stroke-opacity:1"
       d="m 1487.6,242.1 c 9.2,0.2 18.3,0.1 27.4,0 0.2,-26.1 -0.1,-52.3 0.2,-78.4 19.2,22.9 37.5,46.5 56.4,69.7 2.5,2.8 4.5,6.3 7.5,8.7 11.5,0.2 23,0.2 34.6,0 -10.8,-14.4 -22.5,-28.1 -33.6,-42.2 -12.9,-16 -25.8,-32.1 -38.7,-48.1 24.1,-29.9 48.9,-59.4 73.2,-89.2 0.5,-0.7 1.1,-1.5 1.7,-2.3 -10.5,-0.2 -20.9,0 -31.4,-0.1 -1.8,0.1 -4.2,-0.5 -5.3,1.4 -18.6,22.6 -37.1,45.2 -55.8,67.8 -2.9,-2.9 -5.4,-6 -7.8,-9.3 -0.7,-0.9 -1,-1.9 -0.9,-3 -0.1,-19 0.1,-38 -0.1,-56.9 -9.1,0 -18.2,0 -27.3,0 -0.4,51.6 0,103.2 -0.2,154.8 0.1,9 -0.1,18.1 0.1,27.1 z" /></g></svg>